<svg
      width="482"
      height="363"
      fill="none"
      xmlns="http://www.w3.org/2000/svg"
    >
      <path
        d="M341.257 249.711l55.357 1.4s9.408-2.489 8.319 20.38c-1.166 22.868-9.096 37.725-9.096 37.725l-68.807-3.578s14.849-26.991 12.906-51.493"
        fill="#fff"

      />
      <path
        d="M397.16 311.554l.699-1.322c.311-.622 8.242-15.635 9.408-38.737.544-10.89-1.166-17.968-5.132-21.157-2.332-1.945-4.742-1.789-5.675-1.634l-55.123-1.4-.078 4.667 55.667 1.4.311-.077c.078 0 1.011-.156 2.1.777 1.477 1.323 3.887 5.29 3.265 17.269-.933 18.279-6.375 31.425-8.241 35.469l-63.754-3.344c3.888-8.012 13.14-29.403 11.585-49.549l-4.587.389c1.866 23.491-12.518 49.938-12.673 50.249l-1.788 3.267 74.016 3.733z"
        fill="#FFCCDC"
      />
      <path
        d="M349.734 260.6l55.256 1.58-.133 4.666-55.257-1.58.134-4.666z"
        fill="#FFCCDC"
      />
      <path
        d="M273.968 2.89h62.354s11.506 43.871-6.92 53.127c0 0-41.984-2.8-61.421 1.867 0 0 8.319-28.624 3.654-44.804"
        fill="#fff"
      />
      <path
        d="M264.714 60.996l3.887-.934c18.815-4.511 60.255-1.789 60.721-1.789l.622.078.545-.311c19.903-9.957 8.63-53.905 8.163-55.772l-.466-1.711h-64.142v4.667h60.565c3.032 12.679 6.842 41.382-5.598 48.46-5.286-.311-38.407-2.178-57.689 1.167 2.1-8.401 6.531-29.092 2.722-42.393l-4.432 1.245c4.354 15.323-3.576 43.248-3.654 43.481l-1.244 3.812zM380.913 178.83h77.514c12.829 0 23.169-9.801 23.169-21.936v-15.245c0-12.135-10.418-21.936-23.169-21.936h-77.514c-12.829 0-23.169 9.801-23.169 21.936v15.245c0 12.057 10.34 21.936 23.169 21.936z"
        fill="#FFCCDC"
      />
      <path
        d="M234.745 188.074s11.04-48.771 13.061-53.671c2.022-4.9 8.008-7.545 12.207-8.867 4.198-1.323 14.616-11.435 15.782-20.458 1.167-9.023 19.593-14.39 16.639-16.646-2.877-2.333-12.907-17.268-28.689 6.923 0 0-3.344-41.537-13.062-48.07-9.719-6.612-9.874 3.733-9.874 3.733s-9.874-11.046-14.072 5.678c0 0-8.397 2.023-6.065 13.068 0 0-7.075-2.334-6.22 6.923.856 9.256 6.065 29.402 4.51 36.092-1.633 6.689-13.917 43.637-21.148 47.137-7.23 3.501 36.931 28.158 36.931 28.158z"
        fill="#fff"
        stroke="black"
        strokeWidth="5.955"
        strokeMiterlimit="10"
        strokeLinecap="round"
        strokeLinejoin="round"
      />
      <path
        d="M240.89 51.02c3.032 11.123 7.93 25.28 7.93 31.502l-7.93-31.502z"
        fill="#fff"
      />
      <path
        d="M240.89 51.02c3.032 11.123 7.93 25.28 7.93 31.502"
        stroke="#000"
        strokeWidth="5.955"
        strokeMiterlimit="10"
        strokeLinecap="round"
        strokeLinejoin="round"
      />
      <path
        d="M226.815 56.696c2.644 6.767 7.853 23.568 7.853 29.169l-7.853-29.17z"
        fill="#fff"
      />
      <path
        d="M226.815 56.696c2.644 6.767 7.853 23.568 7.853 29.169"
        stroke="#000"
        strokeWidth="5.955"
        strokeMiterlimit="10"
        strokeLinecap="round"
        strokeLinejoin="round"
      />
      <path
        d="M220.752 69.773c3.81 6.534 5.054 19.135 5.054 19.135l-5.054-19.135z"
        fill="#fff"
      />
      <path
        d="M220.752 69.773c3.81 6.534 5.054 19.135 5.054 19.135"
        stroke="#000"
        strokeWidth="5.955"
        strokeMiterlimit="10"
        strokeLinecap="round"
        strokeLinejoin="round"
      />
      <path
        d="M416.753 162.173c.233-4.745-1.166-10.112-7.775-10.112-6.608 0-39.962 4.2-43.772 3.5-3.809-.7-8.008-7.545-6.608-11.979 1.399-4.511-2.721-16.179-10.963-15.712-8.241.467-1.01 7.856-1.477 12.757-.466 4.9-33.432 48.226-56.134 50.637-22.702 2.412 19.593 49.705 19.593 49.705s28.611-25.047 35.764-28.236c7.075-3.189 36.774-7.39 45.016-6.223 8.241 1.167 24.335 4.512 15.083-10.579 0 0 13.061 2.023 8.241-12.912 0 0 16.949-9.567-5.676-14.779l8.708-6.067z"
        fill="#fff"
        stroke="#000"
        strokeWidth="5.955"
        strokeMiterlimit="10"
        strokeLinecap="round"
        strokeLinejoin="round"
      />
      <path
        d="M408.046 168.243c-15.783 2.956-25.89 4.279-25.89 4.279M413.646 183.023l-28.3 2.955M405.403 195.93h-18.037"
        stroke="#000"
        strokeWidth="5.955"
        strokeMiterlimit="10"
        strokeLinecap="round"
        strokeLinejoin="round"
      />
      <path
        d="M204.272 359.443l-187.995-.933 74.871-98.165 85.29 19.213s32.732 58.883 27.834 79.885z"
        fill="#fff"
        stroke="#000"
        strokeWidth="5.955"
        strokeMiterlimit="10"
      />
      <path
        d="M184.754 93.954c-11.251 0-20.37-9.124-20.37-20.38 0-11.255 9.119-20.379 20.37-20.379 11.25 0 20.369 9.124 20.369 20.38 0 11.255-9.119 20.38-20.369 20.38z"
        stroke="#000"
        strokeWidth="5.769"
        strokeMiterlimit="10"
        strokeLinecap="round"
        strokeLinejoin="round"
      />
      <path
        d="M159.873 47.362s15.861 8.167 20.137 19.368c4.276 11.201 12.595 16.257 17.415 15.868 4.821-.389 4.821 2.878 3.655 5.212-1.167 2.333-2.722 15.79-2.1 20.301.545 4.512-7.152 23.491-23.79 23.258l-.389 13.768-73.783-8.945 36.386-82.685 22.469-6.145z"
        fill="#fff"
        stroke="#000"
        strokeWidth="5.955"
        strokeMiterlimit="10"
      />
      <path
        d="M91.144 262.358l82.413 17.191s1.944.233 4.509-.467c4.665-1.323 11.196-6.067 10.108-22.247 0 0 30.244 3.501 30.555-21.624 0 0 4.198 1.867 10.884 4.201 19.671 7 60.877 18.901 80.081 3.344 0 0 2.177-23.102-8.242-39.592-3.265-5.212-7.774-9.801-13.994-12.757 0 0-12.984 6.923-32.188-3.111s-53.024-31.114-77.903-28.703l-.622-4.744-1.788-12.835-34.521-1.478s-36.308 36.403-40.584 44.726c-4.51 8.401-8.708 78.096-8.708 78.096z"
        fill="#000"
        stroke="#000"
        strokeWidth="5.955"
        strokeMiterlimit="10"
      />
      <path
        d="M186.856 255.209s30.244 3.5 30.555-21.624c0 0 4.199 1.867 10.885 4.2l-10.807-8.712c.078 0-5.909 26.525-30.633 26.136zM176.668 278.314c4.664-1.323 11.195-6.067 10.107-22.247 0-.077-5.287 18.824-10.107 22.247zM177.292 160.935c19.204 1.167 52.558 22.013 77.826 36.17 16.949 9.412 35.686 9.412 46.182 8.401-3.265-5.212-7.775-9.801-13.994-12.757 0 0-12.984 6.923-32.188-3.111-19.126-10.035-52.946-31.114-77.826-28.703z"
        fill="#fff"
      />
      <path
        d="M64.788 293.567s22.236-23.413 26.357-31.191c4.043-7.779 1.321-18.591 3.265-37.57 1.944-18.98 18.737-53.827 31.721-65.106 12.984-11.201 20.137-35.236 20.137-35.236-18.971 12.99-26.745 2.722-27.29-7.935-.544-10.656 15.317-9.645 15.317-9.645 17.649-12.056 14.539-49.47 14.539-49.47s25.967-8.168 33.665-18.202c2.021-2.645 2.487-4.979 2.176-7.001-1.01-5.834-9.096-9.1-9.096-9.1C74.507 9.341 80.338 78.88 79.716 109.683c-.311 14.78-5.831 27.536-12.673 37.493-7.464 10.734-16.405 18.279-22.003 21.624-10.651 6.378-38.33 9.489-42.217 52.504-3.887 42.937 61.965 72.262 61.965 72.262z"
        fill="#414141"
      />
      <path
        d="M65.333 296.293l1.088-1.167c.933-.933 22.547-23.802 26.668-31.736 2.721-5.134 2.721-11.045 2.721-19.291 0-5.444.078-11.589.778-19.135 1.866-18.435 18.659-52.893 30.943-63.55 13.295-11.512 20.526-35.314 20.837-36.325l2.021-6.223-5.364 3.656c-7.62 5.212-13.84 6.845-18.038 4.823-3.265-1.634-5.365-5.679-5.676-10.968-.077-1.789.389-3.189 1.478-4.278 2.876-2.8 9.174-3.111 11.351-3.034l.777.078.7-.389c16.405-11.2 16.016-41.77 15.627-49.626 6.065-2.023 26.124-9.334 33.121-18.435 2.255-2.956 3.11-5.912 2.566-8.79-1.244-7-10.108-10.656-10.496-10.812l-.233-.078-.312-.078c-34.753-4.744-60.487 0-76.659 14.002-21.458 18.59-21.614 49.004-21.77 69.15 0 2.023 0 3.967-.077 5.678-.233 12.524-4.354 24.736-12.284 36.17-7.153 10.346-15.939 17.735-21.225 20.924-1.711 1.012-3.966 2.023-6.61 3.112C24.749 175.338 3.913 184.205.57 221.153c-1.633 18.357 8.863 37.181 30.4 54.294 16.015 12.756 32.265 19.99 32.965 20.301l1.399.545zm76.659-166.537c-2.954 7.701-8.941 20.924-17.337 28.236-13.218 11.434-30.555 46.904-32.577 66.584-.777 7.778-.855 14.39-.855 19.601 0 7.545-.078 12.99-2.177 17.113-3.343 6.378-20.214 24.58-24.802 29.48-9.563-4.589-62.509-31.891-59.088-69.228 3.032-34.148 21.614-42.082 33.898-47.293 2.799-1.167 5.21-2.256 7.153-3.423 5.986-3.656 15.16-11.356 22.702-22.246 8.32-12.057 12.829-25.436 13.062-38.737 0-1.789.078-3.733.078-5.756.155-19.29.31-48.46 20.136-65.65 15.006-13.068 39.496-17.424 72.695-12.912 2.099.933 6.842 3.733 7.464 7.234.311 1.555-.311 3.344-1.711 5.133-7.23 9.412-32.265 17.346-32.499 17.424l-1.788.545.156 1.867c0 .389 2.721 35.314-12.906 46.826-2.488 0-9.952.233-14.073 4.356-2.021 2.022-3.032 4.745-2.876 7.778.388 7.079 3.343 12.524 8.241 14.857 4.665 2.256 10.34 1.634 17.104-1.789z"
        fill="#414141"
      />
      <path
        d="M69.843 148.717c23.17-16.335 16.95-42.393 17.494-58.261.544-15.868 9.64-34.07 15.472-41.537 16.093-28.703 62.198-19.602 79.613-15.168.156-5.056-7.619-8.4-7.619-8.4-97.962-13.769-92.053 55.07-92.675 85.873-.234 14.857-5.598 27.536-12.285 37.493z"
        fill="#fff"
      />
      <path
        d="M158.556 109.281c-11.25 0-20.37-9.125-20.37-20.38 0-11.255 9.12-20.38 20.37-20.38 11.25 0 20.37 9.125 20.37 20.38 0 11.255-9.12 20.38-20.37 20.38zM174.417 76.07l6.841-6.455"
        stroke="#000"
        strokeWidth="5.769"
        strokeMiterlimit="10"
        strokeLinecap="round"
        strokeLinejoin="round"
      />
      <path
        d="M160.759 88.777c-2.143-3.32-2.827-6.692-1.529-7.53 1.299-.84 4.089 1.172 6.231 4.492 2.143 3.32 2.827 6.692 1.529 7.531-1.299.839-4.089-1.173-6.231-4.493z"
        fill="#000"
      />
      <path
        d="M191.366 105.858s-2.566 8.012-14.928 3.422M144.401 116.593s-10.962-1.167-15.161 3.033"
        stroke="#000"
        strokeWidth="5.769"
        strokeMiterlimit="10"
        strokeLinecap="round"
        strokeLinejoin="round"
      />
    </svg>