 <svg
      width="402"
      height="408"
      fill="none"
      xmlns="http://www.w3.org/2000/svg"
    >
      <path
        d="M132.515 216.52s-35.356-15.122-18.511-43.922c-.833-4.358-10.192-15.36-16.432-17.493-6.239-2.133-7.486-13.228-3.326-15.142 4.16-1.921 18.072 0 27.134 12.373 0 0 5.729-2.556 11.135-1.066 0 0 1.246-4.69 10.399-1.921 0 0 8.112-6.822 16.018.854 7.906 7.677 14.972 26.025 14.972 26.025l-41.389 40.292z"
        fill="#fff"
      />
      <path
        d="M132.793 218.07l-.775-.331c-.181-.08-4.535-1.961-9.514-5.657-6.653-4.941-11.207-10.79-13.17-16.923-2.312-7.207-1.208-14.864 3.288-22.766-1.286-4.173-9.831-14.109-15.457-16.029-4.288-1.464-6.413-6.273-6.62-10.393-.174-3.524 1.008-6.22 3.171-7.22 4.8-2.212 18.86.093 28.097 11.989 1.802-.642 5.871-1.808 10.024-.993a5.357 5.357 0 011.802-1.63c2.138-1.219 5.167-1.292 9.029-.218 2.119-1.464 9.773-5.829 17.149 1.338 8.022 7.789 14.991 25.739 15.288 26.494l.323.835-42.635 41.504zM98.07 140.626c-1.408 0-2.545.198-3.3.549-1.118.517-1.764 2.345-1.648 4.67.155 3.113 1.738 6.942 4.857 8.008 6.498 2.219 16.315 13.38 17.291 18.494l.097.496-.259.437c-4.314 7.379-5.432 14.453-3.326 21.044 3.817 11.929 17.142 19.01 20.468 20.619l40.116-39.053c-1.472-3.623-7.666-18.248-14.332-24.726-6.956-6.756-14.016-1.033-14.313-.788l-.529.437-.653-.192c-6.091-1.848-8.416-.133-8.797 1.033l-.336 1.272-1.233-.378c-4.89-1.351-10.231.981-10.289 1.001l-.937.417-.614-.835c-6.846-9.359-16.676-12.505-22.263-12.505z"
        fill="#000"
      />
      <path
        d="M131.12 167.796a1.29 1.29 0 01-1.118-.656c-1.22-2.146-7.447-11.101-11.671-16.486a1.342 1.342 0 01.2-1.861 1.265 1.265 0 011.815.205c4.283 5.465 10.632 14.599 11.885 16.811a1.35 1.35 0 01-.465 1.815 1.31 1.31 0 01-.646.172zM142.332 163.53a1.27 1.27 0 01-1.007-.496c-.058-.073-5.936-7.545-9.643-10.757a1.353 1.353 0 01-.155-1.868 1.274 1.274 0 011.821-.159c3.901 3.378 9.74 10.803 9.992 11.121.446.57.362 1.404-.194 1.861a1.247 1.247 0 01-.814.298zM152.273 159.47a1.29 1.29 0 01-1.027-.517c-.536-.702-6.543-6.875-9.03-8.485a1.348 1.348 0 01-.4-1.828 1.275 1.275 0 011.782-.41c2.894 1.881 9.107 8.332 9.695 9.107.433.583.33 1.411-.232 1.861a1.253 1.253 0 01-.788.272zM125.229 194.138c-.213 0-.426-.053-.62-.165-3.242-1.822-5.315-6.777-7.518-12.016-1.292-3.086-2.635-6.279-4.166-8.624a1.338 1.338 0 01.355-1.835 1.264 1.264 0 011.789.365c1.667 2.55 3.056 5.855 4.393 9.054 1.931 4.604 3.927 9.36 6.387 10.744.627.351.853 1.159.511 1.801a1.282 1.282 0 01-1.131.676z"
        fill="#000"
      />
      <path
        d="M2.194 127.551s-4.483-14.943 8.519-14.943c13.002 0 53.686.689 53.686.689s7.848-.577 11.097 9.312c3.249 9.883 28.018 86.433 28.018 86.433s5.155 14.824-7.621 14.824-51.103-1.067-51.103-1.067H34.25L2.193 127.551z"
        fill="#fff"
      />
      <path
        d="M95.893 225.19c-12.647 0-50.754-1.059-51.135-1.073H34.256c-.55 0-1.04-.357-1.221-.894L.979 127.974c-.006-.013-.006-.026-.012-.039-.097-.325-2.358-8.041 1.156-12.91 1.789-2.484 4.682-3.742 8.597-3.742 12.723 0 52.446.669 53.68.689.93-.02 8.984.053 12.323 10.213 3.216 9.777 27.773 85.671 28.019 86.439.103.299 2.745 8.068-.588 12.917-1.666 2.424-4.444 3.649-8.261 3.649zm-60.72-3.716h9.617c.42.014 38.489 1.067 51.103 1.067 2.926 0 4.993-.848 6.149-2.53 2.131-3.107.911-8.651.258-10.532-.258-.795-24.815-76.689-28.025-86.452-2.9-8.81-9.708-8.419-9.779-8.413-.038 0-.07.007-.116 0-.407-.006-40.82-.688-53.66-.688-3.05 0-5.239.894-6.518 2.662-2.667 3.696-.884 10.161-.775 10.545l31.746 94.341z"
        fill="#000"
      />
      <path
        d="M17.127 129.326s-3.779-10.068 4.721-10.068 39.839 1.159 39.839 1.159 6.233-.775 9.062 8.909c2.829 9.683 23.788 72.608 23.788 72.608s2.874 6.002-2.72 6.002H48.465s-5.096 1.742-9.062-9.876c-3.965-11.618-22.276-68.734-22.276-68.734z"
        fill="#616161"
      />
      <path
        d="M196.045 40.985s-12.311 14.234-9.43 29.542c2.88 15.307 5.761 24.441-3.404 33.304 0 0-.988 1.199 1.686 2.934s5.78 3.325 8.319 9.83c2.538 6.504 7.188 16.049 14.1 19.228 6.904 3.18 12.407 7.949 31.015-7.663 0 0 3.804 17.201 1.55 19.228-2.254 2.027-19.234 6.591-29.562 9.816-10.328 3.226-28.07 4.604-44.011 19.342-15.941 14.737-60.178 68.389-60.178 68.389l-32.507 38.047s-10.645-22.587-12.866-29.694c-2.229-7.107-3.1-19.05 4.818-29.959l-20.778-.537s-1.88-5.935-3.042-11.876c-1.157-5.935-2.461-7.571.723-13.804 3.184-6.233 9.985-33.396-15.34-8.313l-2.752 4.008-9.985-28.204s-5.787 7.273-8.248 19.295c-2.46 12.022-4.896 21.156 1.647 45.313 6.543 24.163 8.836 59.732 12.104 74.496 3.275 14.764 12.433 53.692 51.704 53.692 8.183 0 23.232 4.027 78.204-44.293 29.452-25.839 24.092-20.467 24.092-20.467l12.879 113.086h168.189s2.616-90.267 7.202-95.97c4.586-5.703 34.032-56.043 34.684-68.794.653-12.751 4.909-30.873-10.469-43.624-15.379-12.75-9.947-9.067-34.891-25.15-22.607-14.578-58.731-24.156-60.662-34.748-1.938-10.591-10.651-63.865-10.651-63.865s-77.281-76.716-84.14-32.589z"
        fill="#fff"
      />
      <path
        d="M354.972 407.057H186.783c-.653 0-1.208-.504-1.286-1.173l-12.64-110.973c-2.635 2.179-8.642 7.299-22.212 19.209-51.697 45.445-68.387 44.935-77.352 44.65-.6-.02-1.162-.033-1.692-.033-40.833 0-49.96-41.186-52.963-54.725-1.285-5.796-2.403-14.618-3.694-24.839-1.97-15.552-4.418-34.907-8.397-49.598-6.336-23.382-4.327-33.092-2.002-44.332l.33-1.61c2.499-12.201 8.267-19.553 8.512-19.864.297-.371.762-.55 1.214-.471.459.08.84.404 1.001.855l9.14 25.812 1.324-1.934a1.53 1.53 0 01.161-.192c9.456-9.366 15.405-12.539 18.731-9.988 4.67 3.59.213 16.81-1.343 19.864-2.422 4.749-2.06 6.346-1.189 10.214.181.808.388 1.702.581 2.715.873 4.458 2.17 8.969 2.733 10.837l19.854.51c.485.013.918.298 1.13.742.214.443.162.973-.122 1.371-8.836 12.181-5.774 25.097-4.625 28.766 1.809 5.776 9.398 22.223 11.956 27.714l31.222-36.536c.426-.517 44.463-53.877 60.287-68.502 12.879-11.903 26.973-15.281 37.268-17.745 2.636-.63 5.129-1.226 7.234-1.888a700.2 700.2 0 018.92-2.683c7.893-2.338 18.705-5.544 20.171-6.855.82-1.173-.084-8.763-1.518-15.857-16.554 13.373-22.955 10.26-29.142 7.253-.523-.252-1.047-.51-1.583-.755-5.651-2.604-10.618-9.313-14.765-19.944-2.196-5.631-4.741-7.253-7.208-8.817l-.601-.384c-1.453-.94-2.273-1.974-2.441-3.06-.123-.808.155-1.484.452-1.848a.795.795 0 01.103-.106c7.809-7.55 6.298-15.26 3.805-28.031-.252-1.305-.517-2.656-.782-4.06-2.771-14.725 7.667-28.171 9.482-30.377 1.214-7.293 4.431-11.876 9.559-13.631 22.425-7.67 74.484 43.663 76.693 45.855.2.2.329.457.375.736.084.53 8.732 53.387 10.644 63.839 1.027 5.623 14.642 11.717 29.052 18.162 10.225 4.577 21.818 9.763 31.035 15.705l4.211 2.715c16.936 10.916 16.936 10.916 25.035 17.712 1.563 1.312 3.423 2.875 5.774 4.822 13.751 11.4 12.434 26.76 11.368 39.1-.168 1.98-.329 3.855-.42 5.623-.672 13.102-30.15 63.555-34.975 69.562-3.132 3.902-5.897 60.442-6.904 95.17-.039.728-.614 1.298-1.312 1.298zm-167.04-2.65h165.787c.162-5.12.795-24.706 1.841-44.59 2.474-46.995 4.754-49.83 5.613-50.897 4.67-5.815 33.761-55.718 34.394-68.019.09-1.814.258-3.709.426-5.716 1.007-11.717 2.261-26.296-10.418-36.808a1692.905 1692.905 0 01-5.787-4.828c-7.971-6.69-7.971-6.69-24.77-17.513l-4.212-2.716c-9.048-5.835-20.545-10.982-30.692-15.519-16.354-7.32-29.278-13.102-30.557-20.103-1.822-9.976-9.747-58.348-10.58-63.455-4.353-4.26-53.654-51.824-73.774-44.948-4.288 1.463-6.872 5.365-7.886 11.909a1.326 1.326 0 01-.31.669c-.116.139-11.852 13.943-9.126 28.416.264 1.397.523 2.742.781 4.04 2.551 13.062 4.25 21.739-4.295 30.211.097.178.381.569 1.221 1.119l.581.371c2.558 1.629 5.736 3.65 8.248 10.088 3.837 9.829 8.481 16.234 13.428 18.513.549.252 1.092.517 1.628.775 5.923 2.881 11.522 5.597 28.038-8.26a1.262 1.262 0 011.24-.225c.42.152.743.51.84.96 1.485 6.71 3.61 18.308 1.143 20.521-1.763 1.583-9.172 3.855-21.153 7.412-3.21.953-6.239 1.848-8.881 2.676-2.19.682-4.722 1.291-7.402 1.927-10.018 2.398-23.743 5.683-36.125 17.129-15.695 14.512-59.615 67.727-60.054 68.264l-32.528 38.066a1.263 1.263 0 01-1.143.437 1.289 1.289 0 01-.988-.735c-.44-.927-10.709-22.752-12.937-29.866-1.182-3.769-4.224-16.54 3.623-29.105l-18.388-.47a1.287 1.287 0 01-1.195-.914c-.078-.245-1.918-6.081-3.08-12.022a82.38 82.38 0 00-.57-2.636c-.91-4.008-1.459-6.419 1.415-12.042 2.19-4.286 4.534-14.632 2.086-16.513-.73-.556-3.978-1.504-15.3 9.684l-2.681 3.908c-.278.404-.75.616-1.227.55a1.311 1.311 0 01-1.047-.862l-9.139-25.812c-1.815 2.888-4.986 8.756-6.614 16.731l-.336 1.617c-2.344 11.353-4.205 20.314 1.964 43.073 4.03 14.871 6.49 34.331 8.467 49.963 1.286 10.154 2.397 18.924 3.65 24.594 1.46 6.577 4.489 20.255 12.162 31.932 9.036 13.751 21.915 20.726 38.275 20.726.556 0 1.143.02 1.77.04 8.616.265 24.653.761 75.595-44.015 9.307-8.167 16.095-14.055 20.184-17.513 1.569-1.324 2.732-2.292 3.468-2.861.834-.649 1.777-1.391 2.616-.444.465.523.472 1.113.02 1.775l12.691 111.311z"
        fill="#000"
      />
      <path
        d="M400.546 229.754c0 20.229-36.66 83.181-36.66 83.181-4.444 11.392-7.499 92.287-7.499 92.287H187.228l-13.609-110.238-13.453 11.009-11.271 9.22c-37.526-1.662-43.359-41.603-43.779-63.018-.148-7.902.433-13.287.433-13.287s44.741-52.618 57.071-63.481c12.336-10.863 36.28-19.639 46.433-22.024 10.16-2.378 27.618-6.538 27.618-6.538 16.386-11.108 60.552-5.696 60.552-5.696s5.813 3.034 18.434 9.233c8.203 4.021 19.28 9.393 33.502 16.123 36.112 17.089 51.387 43.007 51.387 63.229z"
        fill="#E1BFFF"
      />
      <path
        d="M357.627 406.547H186.091l-13.46-109.053-23.304 19.07-.484-.02c-16.909-.748-29.323-9.107-36.906-24.839-6.317-13.115-7.899-28.707-8.106-39.477-.149-7.895.413-13.234.439-13.459l.045-.411.265-.311c1.828-2.153 44.941-52.817 57.2-63.614 13.067-11.505 37.74-20.136 46.989-22.309 9.423-2.205 25.325-5.994 27.392-6.484 16.728-11.075 59.402-5.995 61.217-5.776l.226.026.207.106c.058.033 5.949 3.1 18.408 9.221a2712.268 2712.268 0 0033.483 16.115c38.443 18.189 52.136 45.213 52.136 64.435 0 8.604-6.213 25.349-18.472 49.784-8.713 17.367-17.536 32.641-18.318 33.986-4.295 11.399-7.344 90.95-7.369 91.751l-.052 1.259zm-169.262-2.65h166.782c.42-10.737 3.32-80.636 7.537-91.453l.091-.185c.361-.63 36.48-62.866 36.48-82.498 0-18.401-13.306-44.359-50.638-62.025a2683.023 2683.023 0 01-33.515-16.128c-11.194-5.498-17.104-8.545-18.253-9.141-3.404-.391-44.25-4.802-59.461 5.511l-.194.132-.226.053c-.174.04-17.574 4.187-27.624 6.538-10.076 2.365-33.884 11.174-45.878 21.739-11.62 10.24-52.905 58.613-56.67 63.031-.13 1.384-.511 6.213-.388 12.711.207 10.498 1.731 25.68 7.841 38.351 7.06 14.652 18.57 22.501 34.219 23.342l26.14-21.388 13.757 111.41z"
        fill="#000"
      />
      <path
        d="M185.491 267.635l15.34 136.362h-11.878l-14.604-110.821-13.964 10.783M316.316 152.23s-62.839 2.325-78.967 6.458c-16.127 4.134-49.72 12.407-70.828 26.919-14.39 9.896-42.945 45.876-60.016 67.846-.149-7.902.323-13.989.323-13.989s44.282-51.784 56.612-62.647c12.337-10.862 36.28-19.639 46.433-22.023a9382.018 9382.018 0 0027.618-6.538c16.387-11.108 60.553-5.696 60.553-5.696s5.651 3.47 18.272 9.67z"
        fill="#fff"
      />
      <path
        d="M370.584 243.564c0 24.038-6.698 69.37-6.698 69.37l6.698-69.37z"
        fill="#3259FF"
      />
      <path
        d="M363.886 314.259c-.065 0-.129-.006-.194-.013-.704-.113-1.188-.788-1.085-1.51.064-.451 6.685-45.505 6.685-69.172 0-.728.581-1.324 1.292-1.324.71 0 1.291.596 1.291 1.324 0 23.866-6.646 69.112-6.717 69.569a1.295 1.295 0 01-1.272 1.126zM283.208 119.615c-6.052 0-33.542 12.055-36.254-15.155-6.42-1.384-6.291-1.894-6.666-2.523-.368-.636-.123-2.279 2.965-4.054 3.087-1.775 10.741-7.975 9.998-15.32-.736-3.929-13.951-19.5-16.296-.762-.491 1.9-7.531 12.028-11.361 12.664-2.448.404-4.644.192-5.71-3.345-.607-1.98-.852-5.014-.587-9.571.743-12.665 1.111-35.457-2.958-35.583-4.076-.125-22.846.636-24.325.636-1.459 0-18.827-6.822-18.091-20.11.013-.258.039-.516.065-.78 1.11-.888-.743-1.776 4.566-.253 5.141 1.47 7.621 2.352 7.77 2.398-.213-.278-5.774-7.544-.898-10.83 0 0 7.622 5.346 13.228 2.471 5.613-2.881 52.304-43.869 101.011 6.074 4.03 5.855 24.854 66.482-16.457 94.043zM36.542 247.651c-.458 0-.898-.252-1.136-.689a1.347 1.347 0 01.51-1.802c10.16-5.723 7.234-22.799 7.201-22.971-.129-.722.336-1.411 1.034-1.543.704-.133 1.376.344 1.505 1.06.032.192.846 4.782.258 10.227-.794 7.398-3.824 12.77-8.758 15.545-.188.12-.4.173-.614.173zM18.819 225.19c-.336 0-.672-.139-.924-.404-.407-.437-9.682-10.969 10.587-38.603a1.274 1.274 0 011.808-.265c.568.437.685 1.272.258 1.855-18.77 25.594-10.85 35.099-10.767 35.192a1.362 1.362 0 01-.07 1.867 1.308 1.308 0 01-.892.358z"
        fill="#000"
      />
      <path
        d="M195.179 121.165s8.687 3.093 14.029-3.756l-14.029 3.756z"
        fill="#fff"
      />
      <path
        d="M199.797 123.205c-2.771 0-4.863-.722-5.044-.788a1.327 1.327 0 01-.794-1.683 1.281 1.281 0 011.64-.814c.323.112 7.906 2.682 12.601-3.332a1.27 1.27 0 011.815-.205c.556.457.646 1.291.201 1.861-3.127 4.007-7.228 4.961-10.419 4.961zM236.794 130.756a1.26 1.26 0 01-.937-.417 1.353 1.353 0 01.052-1.875c6-5.802 7.964-8.332 7.977-8.352a1.273 1.273 0 011.815-.219c.562.451.659 1.285.213 1.862-.078.106-2.06 2.662-8.235 8.644a1.275 1.275 0 01-.885.357z"
        fill="#000"
      />
      <path
        d="M230.794 60.499c-1.383 8.756-5.852 19.38-8.365 24.872-.607-1.835-.852-4.65-.587-8.87.742-11.737 1.11-32.86-2.952-32.972-4.069-.12-22.819.59-24.299.59-1.459 0-18.808-6.326-18.072-18.633 1.951 2.384 4.78 4.901 8.752 6.491 9.553 3.842 31.481.861 38.004 4.59 6.537 3.73 9.476 11.532 7.519 23.932z"
        fill="#fff"
      />
      <path
        d="M200.986 86.318c1.616 0 2.926-2.832 2.926-6.326 0-3.493-1.31-6.326-2.926-6.326s-2.926 2.833-2.926 6.326c0 3.494 1.31 6.326 2.926 6.326zM195.308 59.479s-2.68 3.166-.671 4.537c2.008 1.378 9.927-2.888 12.336 5.365 1.473 1.928 4.425.278 4.425-1.927 0-2.206-2.545-12.512-16.09-7.975z"
        fill="#000"
      />
    </svg>