 <svg
      width="416"
      height="474"
      fill="none"
      xmlns="http://www.w3.org/2000/svg"
    >
      <g clipPath="url(#prefix__clip0_217_1673)">
        <path
          d="M42.343 193.936c-.32-11.658 4.587-26.419 12.588-28.237 8-1.818 5.44 8.129 2.773 14.119-2.667 5.99-.96 14.546 4.054 18.611 5.014 4.064 21.229 10.589 18.242 1.283-2.88-9.412-5.334-15.83-.32-17.541 5.013-1.711 14.401 3.637 14.081 18.504-.32 14.867-4.16 32.73-10.134 44.602-5.974 11.873-7.681 37.543-7.788 44.388 0 1.498 0 2.674-.106 3.637-.107 3.637-.107 4.171-.107 4.171s30.723-11.337 36.377-12.621c5.654-1.283 30.509 69.845 30.509 69.845s-34.35 2.139-45.23 3.529c-10.882 1.391-41.071 4.065-50.885 2.674-9.921-1.39-42.884-1.497-36.27-32.088 6.614-30.59 16.321-47.276 19.308-53.051 2.88-5.776 10.028-26.847 9.494-30.27-.533-3.316-18.028-21.178-8.747-29.949 0 0 1.387-9.412 6.72-11.444 0 0-2.773-7.167 3.947-7.808l1.494-2.354z"
          fill="#fff"
          stroke="#000"
          strokeWidth="3.146"
          strokeMiterlimit="10"
        />
        <path
          d="M74.346 321.967s1.28-16.686 1.387-24.494l-1.387 24.494z"
          fill="#fff"
        />
        <path
          d="M74.346 321.967s1.28-16.686 1.387-24.494"
          stroke="#000"
          strokeWidth="3.146"
          strokeMiterlimit="10"
          strokeLinecap="round"
          strokeLinejoin="round"
        />
        <path
          d="M55.678 229.875c-.64 0-1.28-.428-1.6-1.07-3.414-9.091-12.909-10.161-19.843-10.91-1.813-.214-3.306-.321-4.587-.641-.853-.214-1.493-1.07-1.28-2.033.214-.855 1.067-1.497 2.027-1.283 1.067.214 2.56.428 4.267.642 7.36.855 18.455 2.032 22.616 13.049a1.663 1.663 0 01-.96 2.139c-.214.107-.427.107-.64.107zM59.304 220.142c-.853 0-1.493-.642-1.706-1.391-1.494-10.803-14.935-12.3-19.949-12.835-.427 0-.853-.107-1.173-.107-.96-.107-1.6-.963-1.494-1.925.107-.963.96-1.605 1.92-1.498.32 0 .64.107 1.067.107 5.227.535 21.015 2.353 22.936 15.723.106.963-.534 1.819-1.387 1.926h-.214z"
          fill="#000"
        />
        <path
          d="M393.522 339.294c29.23 25.778 4.481 62.251-28.056 58.614l-1.493.107c-14.295 6.311-86.408-97.975-86.408-97.975l-16.322-63.641s-33.496-42.677-7.254-62.357c6.508-4.92 12.695-7.915 18.349-9.413 16.428-4.492 28.909 2.995 35.843 9.413 8.641 8.129 11.201 27.809 13.441 58.186 5.974 28.879 31.363 37.864 54.085 46.848 17.602 7.059 33.603 14.119 37.657 30.698 5.654 19.787-19.842 29.52-19.842 29.52z"
          fill="#000"
          stroke="#000"
          strokeWidth="3.146"
          strokeMiterlimit="10"
        />
        <path
          d="M374.321 280.788c-52.699-1.605-60.486-35.939-61.98-42.998-1.706-8.129-2.666-40.217-8.64-55.405-3.841-9.948-20.802-14.226-32.537-15.509 15.895-5.348 29.123 2.781 35.524 8.663 8.107 7.381 11.201 27.81 13.441 58.186 5.974 28.879 31.469 38.078 54.192 47.063z"
          fill="#CCC"
        />
        <path
          d="M76.693 81.308h-6.507v4.813h6.507v-4.813zM63.678 71.682h-1.6c-1.813 0-3.2 1.497-3.2 3.208 0 1.819 1.493 3.21 3.2 3.21h4.8v-3.21c.107-1.818-1.386-3.208-3.2-3.208zM76.693 89.437h-6.507v32.409h6.507v-32.41zM58.878 135.216c0 1.497 1.28 2.781 2.773 2.781h23.576c1.493 0 2.773-1.284 2.773-2.781v-2.14H58.879v2.14zM125.017 11.784a3.205 3.205 0 003.201-3.209 3.205 3.205 0 00-3.201-3.208 3.205 3.205 0 00-3.2 3.208 3.205 3.205 0 003.2 3.21zM21.754 131.579c5.362 0 9.708-4.358 9.708-9.733 0-5.376-4.346-9.734-9.708-9.734-5.361 0-9.707 4.358-9.707 9.734 0 5.375 4.346 9.733 9.707 9.733zM66.985 142.917a3.1 3.1 0 003.094 3.102h6.614a3.1 3.1 0 003.093-3.102v-1.712h-12.8v1.712zM87.894 125.054H58.878v4.814h29.016v-4.814zM133.125 99.17c3.594 0 6.507-2.921 6.507-6.524 0-3.604-2.913-6.525-6.507-6.525s-6.508 2.921-6.508 6.525c0 3.603 2.914 6.524 6.508 6.524z"
          fill="#FFFDBE"
        />
        <path
          d="M96.428 86.656c-5.014 3.743-8 9.626-8 15.83v.321c0 .855-.748 1.604-1.6 1.604-.854 0-1.601-.749-1.601-1.604v-.321c0-7.273 3.414-14.119 9.28-18.397 8.962-6.739 14.402-17.434 14.402-28.558 0-19.68-15.895-35.725-35.737-35.618-19.415.107-35.203 16.044-35.203 35.51 0 11.338 5.12 21.82 14.295 28.666 5.867 4.385 9.387 11.338 9.387 18.504v.321c0 .855-.746 1.604-1.6 1.604-.853 0-1.6-.749-1.6-1.604v-.321c0-6.204-2.987-12.087-8-15.937-9.815-7.38-15.575-19.039-15.575-31.232 0-21.285 17.388-38.72 38.723-38.72 21.442 0 38.724 17.328 38.724 38.827-.214 12.193-6.081 23.852-15.895 31.125zm-23.042-83h-.427c-28.163.213-51.205 23.317-51.205 51.66 0 16.58 7.468 31.768 20.802 41.608 7.894 5.883 12.802 15.188 13.122 24.815h11.307V89.437h-1.6c-.853 0-1.6-.749-1.6-1.605 0-.855.747-1.604 1.6-1.604h1.6v-4.813h-4.8c-3.52 0-6.508-2.888-6.508-6.525 0-3.636 2.88-6.524 6.508-6.524h1.6c3.52 0 6.507 2.888 6.507 6.524v3.21H76.8v-3.21c0-3.53 2.88-6.524 6.508-6.524h1.6c3.52 0 6.507 2.888 6.507 6.524 0 3.637-2.88 6.525-6.507 6.525h-4.8v4.813h1.6c.853 0 1.6.749 1.6 1.605 0 .855-.747 1.604-1.6 1.604h-1.6v32.409h11.307c.32-9.734 5.12-18.932 13.015-24.708 13.121-9.733 20.908-25.243 20.908-41.607-.32-28.558-23.469-51.876-51.951-51.876z"
          fill="#FFFDBE"
        />
        <path
          d="M87.894 74.89c0-1.818-1.494-3.208-3.2-3.208h-1.6c-1.814 0-3.2 1.497-3.2 3.208v3.21h4.8c1.813 0 3.2-1.391 3.2-3.21zM21.754 7.72c0 3.209-4.8 3.209-4.8 0s4.8-3.209 4.8 0zM5.646 44.942c0 3.209-4.8 3.209-4.8 0s4.8-3.209 4.8 0zM21.754 93.501c0 3.21-4.8 3.21-4.8 0 0-3.209 4.8-3.209 4.8 0zM137.925 67.617c0 3.209-4.8 3.209-4.8 0s4.8-3.209 4.8 0zM117.017 116.177c0 3.209-4.801 3.209-4.801 0-.107-3.316 4.801-3.316 4.801 0zM47.57 138.745c0 3.209-4.8 3.209-4.8 0s4.8-3.209 4.8 0zM110.509 2.907c0 3.208-4.8 3.208-4.8 0 0-3.21 4.8-3.21 4.8 0z"
          fill="#FFFDBE"
        />
        <path
          d="M137.285 470.213s13.548-32.73 16.002-37.222c2.453-4.492 138.786 1.604 138.786 1.604l24.109 37.222-178.897-1.604z"
          fill="#CCC"
          stroke="#000"
          strokeWidth="3.146"
          strokeMiterlimit="10"
          strokeLinecap="round"
          strokeLinejoin="round"
        />
        <path
          d="M111.896 283.034s57.925-13.156 60.486 9.412l75.313-.535s62.94-4.706 88.969 59.256l-44.591 83.429-138.786-1.605s-12.268-27.061-12.268-34.655c0-7.594-41.177-13.37-13.228-57.437 0 0-20.909-21.285-15.895-57.865z"
          fill="#000"
        />
        <path
          d="M325.889 348.172l-.853-1.39c-25.069-39.255-58.245-45.672-75.74-45.993h-1.067l-1.707-.107.213-3.209 1.707.107h.96c18.135.321 52.592 6.953 78.514 47.597l.854 1.391-2.881 1.604z"
          fill="#CCC"
        />
        <path
          d="M325.889 349.776c-.533 0-1.066-.32-1.386-.748l-.854-1.391c-24.642-38.612-57.179-44.923-74.353-45.244h-1.174l-1.707-.107c-.426 0-.853-.213-1.173-.534-.32-.321-.427-.749-.427-1.177l.213-3.209c.107-.855.854-1.604 1.707-1.497l1.707.107h.854c18.561.321 53.551 7.059 79.794 48.346l.853 1.39c.213.428.32.856.213 1.284a1.959 1.959 0 01-.746 1.069l-2.881 1.711h-.64zm-16.321-24.814c5.867 5.669 11.521 12.514 16.855 20.857-5.334-8.236-10.988-15.188-16.855-20.857zM164.274 291.911c-.213 0-.533-.107-.746-.214-17.175-8.877-48.005-1.176-48.325-1.069-.853.214-1.813-.321-2.027-1.177-.213-.855.32-1.818 1.174-2.032 1.28-.321 32.429-8.129 50.671 1.39.853.428 1.173 1.391.747 2.247-.32.534-.96.855-1.494.855z"
          fill="#CCC"
        />
        <path
          d="M162.567 409.781h123.319v-3.744h-1.707v-7.701c0-1.925-1.6-3.53-3.627-3.53H162.567v-12.621h123.319v-3.743H162.567c-8.64 0-15.574 6.952-15.574 15.616 0 8.77 6.934 15.723 15.574 15.723zM278.738 414.487H155.42v3.744h123.318v11.872H162.674c-1.92 0-3.627 1.605-3.627 3.53v8.45h-3.734v3.743h123.319c8.64 0 15.574-6.952 15.574-15.616.107-8.771-6.827-15.723-15.468-15.723zM290.686 358.012c1.92 0 3.627-1.604 3.627-3.529v-8.343h3.734v-3.744H174.729c-8.641 0-15.575 6.953-15.575 15.616 0 8.664 6.934 15.616 15.575 15.616h123.318v-3.743H174.622v-11.98l116.064.107z"
          fill="#fff"
        />
        <path
          d="M160.114 409.674c-.427-4.92 14.721-4.065 24.429 0 9.707 4.064 36.483 4.492 36.91-1.284.427-5.775-11.628-14.546-11.414-16.044.213-1.497-.427-6.096 7.147-3.422 7.574 2.567 28.909 20.108 28.909 20.108l59.846-1.497s-8.748-6.311-5.441-10.482c3.201-4.065 7.148-11.017-5.654-12.729 0 0 9.921-6.096 8.855-20.322l31.149-11.872s35.63 51.982 37.764 56.26c2.133 4.279 14.508 42.035-5.227 47.597-19.629 5.669-54.192 2.353-72.327-1.497-18.135-3.851-53.979-10.803-64.753-10.161-10.774.642-66.673 2.674-70.193-34.655z"
          fill="#fff"
          stroke="#000"
          strokeWidth="3.146"
          strokeMiterlimit="10"
        />
        <path
          d="M214.839 256.722l-55.579-57.331s.32-8.449 4.481-18.397c5.014-11.658 15.681-25.349 37.977-28.986 19.095-3.102 35.95 3.53 48.751 13.584 14.721 11.552 24.002 27.703 24.962 38.292 1.6 19.787-3.84 56.367-60.592 52.838z"
          fill="#000"
          stroke="#000"
          strokeWidth="3.146"
          strokeMiterlimit="10"
        />
        <path
          d="M178.889 247.309s21.015 53.908-11.521 38.72c0 0-11.201 39.468 22.509 37.649 33.709-1.818 57.818-29.948 57.818-29.948s-23.042 2.46-27.309-9.306c-4.267-11.765-7.787-49.95-7.787-49.95l-33.71 12.835z"
          fill="#fff"
          stroke="#000"
          strokeWidth="3.146"
          strokeMiterlimit="10"
          strokeLinecap="round"
          strokeLinejoin="round"
        />
        <path
          d="M249.616 167.41c-46.618-20.215-72.861.642-84.702 15.403 4.907-11.659 15.255-25.35 37.124-28.986 18.562-3.209 35.096 3.529 47.578 13.583z"
          fill="#CCC"
        />
        <path
          d="M195.317 167.624c-4.48 3.744-15.788 8.45-22.829 18.397-7.147 9.948-20.268 9.734-20.268 13.156 0 3.423 2.667 7.274 3.2 7.915.533.535-5.654 15.189-3.2 25.136 2.453 9.947 29.549 36.473 64.112 2.674 0 0 24.216 12.621 28.056-8.878 0 0-1.493-16.365-21.015-8.984l-28.056-49.416z"
          fill="#FDFFFF"
          stroke="#000"
          strokeWidth="3.146"
          strokeMiterlimit="10"
        />
        <path
          d="M41.596 195.969c3.734-.214 14.402 3.957 18.029 7.166 3.947 3.53 6.187 10.696 5.547 13.049-.747 2.353-5.867 2.246-5.867 2.246s2.88 9.733-3.627 9.733c0 0-2.347 9.306-8.321 7.06-5.974-2.246-7.574-8.664-10.881-8.022"
          stroke="#000"
          strokeWidth="3.146"
          strokeMiterlimit="10"
          strokeLinecap="round"
          strokeLinejoin="round"
        />
        <path
          d="M189.198 202.054c1.917-1.922 2.66-4.292 1.66-5.294-1-1.003-3.364-.258-5.28 1.664-1.917 1.921-2.66 4.291-1.66 5.294 1 1.002 3.364.257 5.28-1.664zM230.52 227.522c3.418 0 6.188-1.054 6.188-2.353 0-1.3-2.77-2.354-6.188-2.354-3.417 0-6.187 1.054-6.187 2.354 0 1.299 2.77 2.353 6.187 2.353zM202.358 202.6c-1.067 0-1.707-.856-1.707-1.818.213-3.637-.747-6.525-2.667-8.45-3.52-3.53-9.281-3.316-9.281-3.316-.96 0-1.707-.641-1.707-1.604 0-.963.64-1.711 1.601-1.711.32 0 7.254-.214 11.841 4.385 2.667 2.674 3.84 6.417 3.627 11.017 0 .748-.747 1.497-1.707 1.497zM167.475 227.522c-1.921 0-4.054-.214-6.294-.535-.96-.107-1.601-.963-1.387-1.925.106-.963.96-1.605 1.92-1.391 7.147 1.07 12.695.214 16.001-2.353a8.407 8.407 0 001.921-2.032c-10.775 3.743-18.989-.642-19.415-.856-.854-.428-1.174-1.497-.641-2.246.427-.856 1.494-1.07 2.241-.642.32.214 9.067 4.706 20.055-.749.533-.32 1.173-.213 1.707.107.533.321.746.963.746 1.498 0 .214-.426 4.385-4.373 7.594-3.094 2.246-7.254 3.53-12.481 3.53zM193.93 424.434c-23.575 0-33.496-12.193-33.923-12.835-.533-.748-.427-1.818.32-2.353.747-.535 1.814-.428 2.347.321.107.214 11.308 13.691 37.87 11.231.96-.107 1.707.642 1.814 1.497.106.963-.64 1.712-1.494 1.818-2.453.214-4.8.321-6.934.321z"
          fill="#000"
        />
        <path
          d="M195.851 433.954c-10.668 0-31.15-1.712-35.417-14.654-.32-.855.213-1.818 1.067-2.139.853-.321 1.813.214 2.133 1.07 4.907 14.76 37.977 12.193 38.404 12.193.96-.107 1.707.642 1.813 1.497.107.963-.64 1.712-1.493 1.819-.534 0-2.987.214-6.507.214z"
          fill="#000"
        />
      </g>
      <defs>
        <clipPath id="prefix__clip0_217_1673">
          <path
            fill="#fff"
            transform="translate(.846 .5)"
            d="M0 0h415v473H0z"
          />
        </clipPath>
      </defs>
    </svg>