<svg
      width="562"
      height="252"
      fill="none"
      xmlns="http://www.w3.org/2000/svg"

    >
      <g clipPath="url(#prefix__clip0_217_1811)">
        <path
          d="M173.134 58.79l-22.947 76.641 46.93 6.203 13.916-50.947-33.754-32.635-4.145.739z"
          fill="#fff"
        />
        <path
          d="M152.119 134.184l43.899 5.801 13.343-48.84-32.572-31.494-2.488.445-22.182 74.088zm46.096 9.098l-49.961-6.605 23.711-79.19 5.804-1.034 34.936 33.778-14.49 53.051z"
          fill="#000"
        />
        <path
          d="M328.955 144.255l-29.282 75.127-47.791-1.904-11.181-6.963-10.463-18.776-55.579-2.041-35.747-5.258s-14.291 11.753-14.291 20.659c0 8.922 2.703 14.283 2.703 14.283h-3.942l-3.404.239c-.642.045-1.374.105-2.165.164-8.034.551-22.698 1.549-29.581 1.832-9.751.387-72.362 1.937-79.903-10.918-7.556-12.838-16.62-33.483 6.107-57.612 22.728-24.114 103.213-57.075 148.726-55.453 0 0 5.525 30.416 25.967 31.592 0 0 9.616 6.062 19.532-29.968 0 0 91.311 13.688 120.294 44.997z"
          fill="#2D2D2D"
        />
        <path
          d="M135.55 205.331l40.362 38.183 91.615-7.828-64.066-41.378h-74.637l6.726 11.023z"
          fill="#fff"
        />
        <path
          d="M118.379 169.619s12.312-2.709 15.752-5.057c3.44-2.348 44.72.362 43.453 27.993 0 0 5.383 5.505.733 12.2 0 0-4.18 7.996-17.656 6.409 0 0 0 2.427-3.838 2.427-3.836 0-30.508-6.442-32.286-7.187-1.778-.747-6.158-36.785-6.158-36.785z"
          fill="#fff"
        />
        <path
          d="M125.487 205.158c3.744 1.181 28.105 6.944 31.335 6.944 1.658 0 2.301-.539 2.347-1.001 0-.425.183-.8.501-1.081.32-.284.748-.378 1.166-.335 12.194 1.435 16.005-5.339 16.16-5.628.027-.048.061-.106.092-.15 3.905-5.622-.389-10.124-.573-10.313a1.489 1.489 0 01-.423-1.108c.386-8.427-3.385-15.176-11.209-20.055-11.734-7.319-28.154-7.589-29.93-6.624-2.985 2.037-11.51 4.167-14.928 4.965 1.631 13.213 4.247 31.429 5.462 34.386zm31.335 9.923c-4.196 0-31.043-6.54-32.865-7.305-.899-.378-2.577-1.082-7.061-37.978a1.493 1.493 0 011.162-1.634c3.345-.735 12.605-3.04 15.23-4.83 2.715-1.853 19.334-1.175 31.513 5.589 9.599 5.335 14.531 13.307 14.296 23.084 2.072 2.486 4.377 7.871.49 13.532-.549.973-5.121 8.241-17.869 7.226-.639 1.166-2.071 2.316-4.896 2.316z"
          fill="#000"
        />
        <path
          d="M181.769 206.862s-1.082 11.102 10.204 6.014c0 0-1.391 10.64 4.175 10.332 5.565-.308 16.232-12.645 16.232-12.645l-2.164 12.651s1.083 3.541 4.329 3.541c3.247 0 5.411-.772 8.503-5.397 3.092-4.627 10.667-18.661 10.667-18.661s8.04 7.866 10.667 7.866c2.629 0 17.626-.618 17.626-.618v-30.532l-53.802-1.852-26.437 29.301z"
          fill="#fff"
        />
        <path
          d="M211.756 223.069c.282.658 1.12 2.196 2.789 2.196 2.549 0 4.31-.318 7.261-4.733 3.017-4.517 10.519-18.399 10.594-18.541a1.496 1.496 0 012.361-.356c4.063 3.974 8.471 7.381 9.626 7.439 2.088 0 12.319-.404 16.127-.558v-27.664l-51.663-1.779-25.619 28.393c-.023 1.286.231 3.699 1.653 4.71 1.613 1.144 4.41.273 6.473-.657a1.494 1.494 0 012.096 1.549c-.3 2.332-.253 6.596 1.163 8.115.38.407.82.579 1.447.539 3.59-.2 11.22-7.546 15.186-12.132a1.496 1.496 0 011.767-.374c.605.285.948.938.834 1.597l-2.095 12.256zm2.789 5.176c-4.302 0-5.7-4.407-5.756-4.595a1.46 1.46 0 01-.044-.685l1.317-7.708c-3.773 3.84-9.744 9.212-13.832 9.437-1.501.089-2.82-.428-3.803-1.485-1.873-2.013-2.155-5.658-2.104-8.103-2.985.937-5.395.764-7.182-.513-3.351-2.393-2.88-7.653-2.858-7.876.031-.317.162-.615.376-.852l26.437-29.301a1.498 1.498 0 011.162-.492l53.801 1.853a1.49 1.49 0 011.443 1.488v30.533c0 .798-.632 1.454-1.433 1.487-.612.026-15.057.62-17.686.62-2.47 0-7.309-4.139-10.288-6.927-2.132 3.912-7.326 13.35-9.805 17.058-3.406 5.094-6.053 6.061-9.745 6.061z"
          fill="#000"
        />
        <path
          d="M212.379 212.052a1.486 1.486 0 01-1.26-2.285l9.493-14.963a1.491 1.491 0 012.061-.461c.695.44.903 1.361.462 2.055l-9.494 14.963a1.49 1.49 0 01-1.262.691zM191.973 214.365a1.487 1.487 0 01-1.12-2.473l20.406-23.132a1.496 1.496 0 012.107-.135c.619.543.679 1.484.136 2.1l-20.407 23.134a1.493 1.493 0 01-1.122.506zM28.634 175.58c-.428 0-.852-.174-1.14-.519-.514-.617-.482-1.498.117-2.033 2.417-2.162 20.83-5.798 30.621-5.557 10.048.237 58.198.832 58.684.838a1.49 1.49 0 01-.02 2.978h-.019c-.483-.005-48.651-.6-58.715-.838-10.17-.24-26.89 3.514-28.572 4.81-.28.214-.619.321-.956.321zM262.007 180.346c-.788 0-1.448-.568-1.49-1.301-.451-7.751-2.659-10.969-4.431-12.302-1.339-1.008-2.584-1.066-3.001-1.034-3.666 1.638-5.281 7.947-5.596 10.28-.102.753-.829 1.29-1.666 1.197-.818-.095-1.4-.781-1.298-1.534.055-.413 1.418-10.122 7.574-12.554.102-.04.208-.069.316-.089.282-.046 2.795-.406 5.438 1.512 3.333 2.419 5.233 7.255 5.646 14.375.044.761-.588 1.408-1.411 1.449l-.081.001z"
          fill="#000"
        />
        <path
          d="M286.807 168.143c-13.034 0-30.28-2.026-32.981-2.354a1.49 1.49 0 11.361-2.958c10.416 1.263 38.75 3.912 44.688 1.039 3.714-1.796 6.366-3.673 8.497-5.182 2.379-1.686 3.951-2.799 5.638-2.826h.026c.813 0 1.48.65 1.493 1.464.014.823-.644 1.5-1.469 1.515-.763.013-2.244 1.062-3.96 2.276-2.102 1.49-4.984 3.529-8.921 5.433-2.433 1.178-7.471 1.593-13.372 1.593z"
          fill="#000"
        />
        <path
          d="M177.966 53.9c.011.231.172 1.134.142 1.364-.373 2.848-1.468 22.93 2.061 26.72 3.796 4.078 28.886 13.69 32.839 12.234 3.954-1.456 10.566-3.908 13.247-23.726 2.095-15.49-28.362-33.576-41.772-40.74-2.726-1.457-6.938-.731-6.799 2.352l.282 21.796z"
          fill="#fff"
        />
        <path
          d="M179.458 53.833c.008.075.024.19.042.318.09.655.13.996.087 1.308-.561 4.302-1.066 22.568 1.676 25.512 3.876 4.163 28.387 12.909 31.228 11.849 3.637-1.338 9.722-3.577 12.284-22.527 2.028-14.991-30.867-33.816-40.997-39.227-1.258-.674-3.065-.732-4.025-.125-.422.264-.598.602-.577 1.097l.282 21.795zm32.609 41.98c-7.125 0-29.354-8.905-32.991-12.814-4.442-4.772-2.478-27.705-2.448-27.926a5.278 5.278 0 01-.085-.515 8.545 8.545 0 01-.068-.585l-.002-.055-.282-21.794c-.069-1.53.628-2.862 1.969-3.702 1.894-1.194 4.785-1.182 7.029.017 39.161 20.921 43.465 35.453 42.546 42.252-2.803 20.723-9.944 23.354-14.209 24.925-.366.134-.86.198-1.459.198z"
          fill="#000"
        />
        <path
          d="M232.642 51.714l-42.154-5.645-12.11-1.623-10.452-1.4s-8.692-24.412 6.645-35.584c0 0 16.917-7.075 25.608 1.594 0 0 7.316-8.207 19.89-7.52 12.573.684 42.303 25.542 12.573 50.178z"
          fill="#fff"
        />
        <path
          d="M169.06 41.694l63.127 8.457c10.094-8.567 13.785-18.038 10.674-27.422-3.745-11.302-16.249-19.347-22.874-19.71-11.649-.617-18.625 6.954-18.693 7.03a1.51 1.51 0 01-1.074.496 1.49 1.49 0 01-1.097-.435c-7.472-7.453-22.141-1.994-23.82-1.337-12.526 9.305-7.544 28.634-6.243 32.921zm63.583 11.51c-.066 0-.134-.005-.198-.013l-64.718-8.67a1.49 1.49 0 01-1.208-.977c-.092-.26-2.253-6.409-2.515-14.05-.352-10.328 2.997-18.363 9.685-23.234a1.57 1.57 0 01.303-.17c.7-.294 16.659-6.82 26.144.92 2.551-2.313 9.515-7.561 20.015-6.963 7.615.415 21.352 9.093 25.545 21.748 2.497 7.528 2.424 19.03-12.1 31.066a1.497 1.497 0 01-.953.343z"
          fill="#000"
        />
        <path
          d="M190.488 46.069v3.366h-12.11v-4.989l12.11 1.623z"
          fill="#fff"
        />
        <path
          d="M190.488 39.277v6.792l-12.11-1.623v-5.17h12.11zM205.887 20.34s-3.276 17.048-14.67 21.31v15.06s16.236 4.262 18.943 13.782c0 0 9.401-2.558 16.095 0l8.546-32.394s-26.635-3.978-28.914-17.759z"
          fill="#fff"
        />
        <path
          d="M192.71 55.594c3.658 1.128 15.092 5.222 18.413 13.14 2.677-.569 8.803-1.56 14.09-.142l7.729-29.305c-5.242-.995-21.325-4.748-26.832-14.091-1.788 5.391-5.74 14.025-13.4 17.453v12.945zm17.451 16.387a1.49 1.49 0 01-1.436-1.083c-2.441-8.584-17.734-12.706-17.889-12.747a1.491 1.491 0 01-1.112-1.44V41.65c0-.623.386-1.177.968-1.396 10.465-3.914 13.697-20.034 13.727-20.196a1.494 1.494 0 011.468-1.208h.02a1.489 1.489 0 011.452 1.245c2.076 12.552 27.408 16.49 27.663 16.529.42.064.792.301 1.025.655.234.354.305.789.197 1.198l-8.545 32.392c-.108.41-.386.752-.763.946-.377.196-.82.22-1.214.066-6.153-2.348-15.079.023-15.169.046a1.483 1.483 0 01-.392.053z"
          fill="#000"
        />
        <path
          d="M177.894 59.732c-1.583.67-3.921 1.247-5.758 1.247-7.138 0-12.931-5.78-12.931-12.9 0-7.118 5.793-12.898 12.931-12.898 1.657 0 4.142.501 5.59 1.067l.168 23.484z"
          fill="#fff"
        />
        <path
          d="M172.136 36.672c-6.307 0-11.438 5.116-11.438 11.408 0 6.29 5.131 11.409 11.438 11.409 1.203 0 2.841-.309 4.258-.784l-.153-21.38c-1.315-.375-2.998-.653-4.105-.653zm0 25.797c-7.954 0-14.426-6.457-14.426-14.39 0-7.932 6.472-14.386 14.426-14.386 1.761 0 4.457.513 6.134 1.168.57.222.945.768.95 1.377l.167 23.484a1.49 1.49 0 01-.911 1.382c-1.489.629-4.043 1.365-6.34 1.365z"
          fill="#000"
        />
        <path
          d="M470.608 243.064h-153.63c-17.633 0-26.724-14.141-20.306-31.584l35.313-95.984c6.418-17.444 25.915-31.584 43.548-31.584h153.631c17.632 0 26.724 14.14 20.305 31.584l-35.314 95.984c-6.417 17.443-25.914 31.584-43.547 31.584z"
          fill="#fff"
        />
        <path
          d="M375.533 85.401c-17.031 0-35.937 13.731-42.146 30.609l-35.314 95.983c-3.052 8.296-2.566 15.958 1.365 21.575 3.613 5.162 9.842 8.007 17.539 8.007h153.63c17.03 0 35.936-13.731 42.146-30.609l35.315-95.983c3.052-8.296 2.566-15.96-1.365-21.576-3.614-5.162-9.843-8.005-17.54-8.005h-153.63zm95.074 159.152h-153.63c-8.701 0-15.8-3.296-19.988-9.279-4.506-6.438-5.118-15.072-1.719-24.308l35.313-95.983c6.606-17.953 26.769-32.56 44.95-32.56h153.63c8.701 0 15.8 3.295 19.989 9.279 4.507 6.438 5.118 15.072 1.719 24.308l-35.314 95.983c-6.606 17.953-26.769 32.56-44.95 32.56z"
          fill="#000"
        />
        <path
          d="M479.568 250.511H325.937c-17.632 0-26.724-14.141-20.306-31.584l35.314-95.984c6.417-17.443 25.915-31.584 43.548-31.584h153.63c17.633 0 26.724 14.141 20.306 31.584l-35.314 95.984c-6.418 17.443-25.915 31.584-43.547 31.584z"
          fill="#A1DBFF"
        />
        <path
          d="M384.492 92.85c-17.031 0-35.937 13.729-42.146 30.608l-35.314 95.983c-3.052 8.295-2.566 15.957 1.365 21.574 3.613 5.163 9.843 8.007 17.54 8.007h153.631c17.029 0 35.935-13.732 42.145-30.608l35.314-95.984c3.052-8.295 2.566-15.959-1.365-21.575-3.613-5.162-9.843-8.006-17.54-8.006h-153.63zM479.568 252H325.937c-8.701 0-15.8-3.295-19.987-9.278-4.508-6.439-5.119-15.072-1.721-24.308l35.315-95.984c6.604-17.954 26.768-32.56 44.948-32.56h153.63c8.702 0 15.8 3.295 19.989 9.278 4.508 6.44 5.119 15.073 1.719 24.31l-35.314 95.983C517.91 237.393 497.748 252 479.568 252z"
          fill="#000"
        />
        <path
          d="M423.629 163.675c4.208-8.622 13.341-12.833 20.402-9.405 7.059 3.43 9.372 13.198 5.164 21.82-4.206 8.622-13.342 12.832-20.403 9.404-7.059-3.429-9.372-13.198-5.163-21.819z"
          fill="#fff"
        />
        <path
          d="M432.553 148.17c-1.762 0-3.587.415-5.38 1.243-3.543 1.632-6.531 4.657-8.416 8.519-3.841 7.87-1.833 16.765 4.474 19.829 6.309 3.063 14.567-.848 18.408-8.717 1.885-3.863 2.429-8.075 1.533-11.862-.872-3.68-3.004-6.508-6.008-7.966a10.487 10.487 0 00-4.611-1.046zm-4.746 33.605c-2.019 0-4.016-.43-5.881-1.336-7.791-3.782-10.416-14.464-5.855-23.811 2.187-4.477 5.683-8.001 9.848-9.921 4.268-1.966 8.725-2.028 12.551-.171 3.826 1.858 6.528 5.396 7.61 9.959 1.054 4.455.43 9.375-1.754 13.853-3.47 7.107-10.112 11.427-16.519 11.427z"
          fill="#050505"
        />
        <path
          d="M167.91 53.633a1.49 1.49 0 01-1.154-.542 1.484 1.484 0 01.204-2.097l3.319-2.73-4.304-4.075a1.487 1.487 0 01-.056-2.105 1.497 1.497 0 012.112-.056l5.528 5.234a1.484 1.484 0 01-.079 2.23l-4.622 3.8c-.278.23-.614.341-.948.341zM200.975 42.737a1.489 1.489 0 01-.983-2.612c2.715-2.364 9.296-5.39 14.77.07a1.483 1.483 0 010 2.105 1.495 1.495 0 01-2.111 0c-4.89-4.878-10.46-.135-10.693.068-.284.249-.634.37-.983.37zM231.29 49.164c-.619 0-1.2-.389-1.413-1.007-1.547-4.5-5.957-3.468-6.453-3.336a1.496 1.496 0 01-1.829-1.047 1.485 1.485 0 011.036-1.825c2.612-.723 8.077-.559 10.073 5.242a1.492 1.492 0 01-1.414 1.973zM216.804 67.383a1.492 1.492 0 01-1.426-1.05 1.487 1.487 0 01.985-1.862c.791-.244 1.796-.674 2.099-1.341.384-.842-.266-2.295-.787-3.463a20.474 20.474 0 01-.556-1.329c-.949-2.648.499-10.667.799-12.247a1.495 1.495 0 011.744-1.187 1.49 1.49 0 011.19 1.74c-.682 3.601-1.42 9.3-.921 10.694.122.341.293.719.47 1.118.726 1.621 1.718 3.841.781 5.905-.613 1.345-1.936 2.339-3.937 2.956a1.518 1.518 0 01-.441.066zM205.103 81.299c-3.571 0-6.846-1.272-8.76-3.403-1.743-1.94-2.445-4.576-2.087-7.834a.81.81 0 01.064-.249c.302-.716 1.457-3.056 3.588-3.056.718 0 1.518.255 2.376.757a.764.764 0 01.37.715c-.296 3.295.257 5.412 1.644 6.293 1.622 1.03 4.921 1.383 6.743 1.502a.744.744 0 01.5.235c1.03 1.061 1.56 2.117 1.419 2.825-.11.555-.659 1.048-1.632 1.469-1.111.481-2.612.746-4.225.746z"
          fill="#000"
        />
        <path
          d="M197.908 65.7c-2.776 0-4.183 2.797-4.566 3.703-.073.174-.12.355-.141.543-1.016 9.243 6.165 12.41 11.903 12.41 1.784 0 3.43-.307 4.647-.832 4.062-1.756 1.729-4.788.552-6a1.811 1.811 0 00-1.193-.555c-1.407-.092-4.767-.402-6.242-1.34-1.354-.858-1.299-3.737-1.159-5.307a1.811 1.811 0 00-.889-1.72c-1.102-.645-2.071-.903-2.912-.903zm0 2.115c.485 0 1.046.173 1.672.516-.291 3.61.431 5.992 2.149 7.083 1.703 1.081 4.787 1.499 7.122 1.658.881.93 1.105 1.627 1.069 1.806-.011.063-.219.362-1.013.705-.968.419-2.354.658-3.803.658-3.275 0-6.255-1.14-7.972-3.051-1.533-1.706-2.146-4.066-1.835-6.965.169-.403 1.094-2.41 2.611-2.41z"
          fill="#000"
        />
        <path
          d="M145.935 174.137s21.679 17.059 29.624 17.327M143.646 190.39s18.767 14.051 35.194 11.768M135.076 195.602s23.998 14.808 31.539 14.808"
          stroke="#000"
          strokeWidth="2.667"
          strokeMiterlimit="10"
          strokeLinecap="round"
          strokeLinejoin="round"
        />
      </g>
      <defs>
        <clipPath id="prefix__clip0_217_1811">
          <path fill="#fff" d="M0 0h562v252H0z" />
        </clipPath>
      </defs>
    </svg>