<svg
      width="353"
      height="556"
      fill="none"
      xmlns="http://www.w3.org/2000/svg"
    >
      <path
        d="M73.62 192.836s-34.296 14.21-39.906 19.959c-8.892 9.112-13.761 37.531-18.525 85.693C10.426 346.65-3.44 414.879.793 425.618c4.234 10.738 15.243 41.436 58.431 15.62 0 0-6.669 22.453-12.808 36.555-6.14 14.101-16.196 73.544-16.196 77.991h251.083s-30.38-134.397-43.294-157.827c-12.808-23.43-23.287-30.155-18.101-57.49 0 0 40.86 74.52 71.769 62.805 30.909-11.715 33.237-42.412 22.864-70.181-10.48-27.769-57.055-84.283-58.431-90.575-1.376-6.291-9.95-65.408-54.196-61.178-44.247 4.122-128.294 11.498-128.294 11.498z"
        fill="#000"
      />
      <path
        d="M44.087 287.315l-1.693-9.979s.74-8.461 8.785-11.39c8.045-2.928 97.491-17.03 97.491-17.03s19.477-3.905 24.24 14.102c4.763 18.006 23.817 154.464 23.817 154.464s5.716 20.935-22.335 22.454c-28.051 1.302-130.305-152.621-130.305-152.621z"
        fill="#fff"
      />
      <path
        d="M47.474 275.166s-11.432 1.411-11.432 17.031 26.146 159.779 26.146 159.779 1.376 9.22 13.337 7.268c11.856-1.953 103.101-16.596 103.101-16.596s9.527-1.41 9.527-19.959-21.383-152.512-21.383-152.512-2.328-15.62-14.29-14.102c-11.961 1.519-105.005 19.091-105.005 19.091z"
        fill="#C2C2C2"
      />
      <path
        d="M19 390.798s41.706-26.467 61.712-30.915c0 0-10.797 47.403 16.196 52.176 0 0-31.015 25.599-37.578 29.179-6.563 3.579-40.33-50.44-40.33-50.44z"
        fill="#000"
      />
      <path
        d="M58.589 443.624c-3.07 0-8.786-4.122-23.605-25.057-9.21-13.017-17.678-26.576-17.783-26.684-.318-.543-.424-1.085-.318-1.627.106-.543.423-1.085.953-1.41 1.693-1.085 42.34-26.685 62.347-31.132l8.892-1.953c1.164-.217 2.222.543 2.54 1.628v.433c0 .977-.635 1.953-1.694 2.17l-7.515 1.627c-1.059 5.749-4.764 28.311 3.175 40.569 2.753 4.23 6.563 6.725 11.538 7.593.847.108 1.482.759 1.694 1.627a2.281 2.281 0 01-.74 2.278c-1.271 1.084-31.227 25.816-37.896 29.396-.318.325-.953.542-1.588.542zm-36.625-52.175c14.502 22.996 32.073 47.077 36.52 47.728 5.398-3.038 25.827-19.634 33.766-26.251-4.128-1.627-7.515-4.339-10.162-8.352-8.15-12.583-5.61-33.626-4.234-41.87-17.677 5.423-48.163 23.972-55.89 28.745z"
        fill="#000"
      />
      <path
        d="M80.712 359.883s30.38-3.905 33.344-12.691c2.964-8.786 5.822-22.887 13.549-29.179 7.727-6.291 11.009-30.698 11.009-30.698s9.738 1.411 6.88 20.502c-2.858 19.091-1.905 8.786-1.905 8.786s38.107-17.03 42.976-8.786c4.869 8.244 5.293 35.036-4.34 43.823-9.633 8.786-37.366 19.958-43.611 21.911-6.246 1.952-41.495 38.399-41.495 38.399s-25.087-2.386-16.407-52.067z"
        fill="#fff"
      />
      <path
        d="M97.12 414.228h-.212c-.318 0-7.41-.759-13.126-8.569-7.092-9.546-8.892-25.166-5.187-46.101.212-.976.953-1.627 1.8-1.736 12.067-1.518 29.85-6.074 31.544-11.172.529-1.519 1.058-3.363 1.588-5.207 2.54-8.678 5.821-19.416 12.596-25.057 5.822-4.773 9.315-22.779 10.268-29.288.106-.542.423-1.084.847-1.41.423-.325 1.058-.542 1.587-.434.318 0 3.493.651 6.14 4.231 2.964 4.122 3.81 10.413 2.54 18.766-.211 1.735-.529 3.254-.741 4.664 12.173-5.098 36.731-14.21 41.495-6.075 5.08 8.678 6.033 36.773-4.764 46.644-10.268 9.328-39.271 20.718-44.352 22.345-4.128 1.301-27.098 23.972-40.542 37.965-.317.109-.847.434-1.482.434zm-14.608-52.392c-3.811 23.43.317 35.253 4.551 41.002 3.493 4.773 7.516 6.292 9.315 6.726 7.41-7.702 35.355-36.23 41.495-38.183 6.033-1.952 33.555-13.016 42.764-21.477 3.811-3.471 6.351-10.956 6.881-20.61.423-8.352-.741-16.705-2.964-20.501-2.223-3.797-21.488 1.41-38.742 8.895-.424 2.169-.847 3.905-2.858 3.579-2.223-.325-2.012-2.386-1.8-5.098.106-.542.318-1.085.741-1.519.318-1.627.635-4.013 1.164-7.376 1.694-10.847-1.058-15.186-3.069-16.921-1.165 7.05-4.552 23.647-11.327 29.179-5.821 4.772-8.785 14.86-11.22 22.887-.529 1.844-1.058 3.688-1.588 5.315-2.752 9.004-25.616 13.017-33.343 14.102z"
        fill="#000"
      />
      <path
        d="M59.33 203.141l30.909-35.254 12.067-111.51 65.946-27.009 42.553 22.671v19.308s6.14 71.266-45.199 68.88c0 0-2.964 32.976 0 36.664 2.964 3.688 49.01 7.05 49.01 7.05s-12.702 41.545-50.068 46.21c-37.261 4.664-94.21-5.316-105.218-27.01z"
        fill="#fff"
      />
      <path
        d="M145.176 233.405c-14.396 0-29.638-1.627-43.505-4.773-13.443-3.037-36.943-10.305-44.14-24.515-.424-.759-.318-1.735.317-2.495l30.38-34.819 11.855-110.75c.106-.76.635-1.52 1.27-1.736l65.947-27.01c.529-.217 1.164-.217 1.799.109l42.553 22.67c.741.326 1.164 1.085 1.164 1.953v19.2c.212 2.603 2.858 39.484-15.56 59.226-7.516 8.135-17.572 12.148-29.745 12.04-1.164 14.318-1.587 30.372-.317 32.976 3.07 1.952 26.463 4.772 47.634 6.291.635 0 1.27.434 1.587.976.318.543.424 1.193.318 1.844-.106.434-13.549 42.955-51.762 47.728-6.245.759-12.914 1.085-19.795 1.085zM61.87 203.466c5.399 8.678 20.006 16.271 40.648 20.936 20.006 4.555 43.188 5.857 61.818 3.579 30.168-3.796 43.823-33.192 47.316-42.087-4.128-.326-12.385-.976-20.747-1.953-24.664-2.711-26.252-4.664-26.993-5.64-3.175-3.905-1.376-27.986-.423-38.182.106-1.194 1.058-2.061 2.223-1.953 11.855.542 21.488-3.037 28.58-10.63 17.36-18.658 14.396-55.647 14.396-55.972V53.341l-40.647-21.586-63.935 26.142L92.25 168.103c0 .434-.212.868-.53 1.194l-29.85 34.168z"
        fill="#000"
      />
      <path
        d="M223.719 79.049l-3.387-1.736c-9.421-5.098-35.249-20.718-38.53-38.616l-1.482 27.118s-44.882-10.196-51.868 27.66c0 0-12.808-18.44-20.641-8.46-7.834 9.979-2.329 20.284 1.905 22.996 4.234 2.712 19.477 3.905 19.477 3.905s1.905 52.066.317 56.731c-1.587 4.664-18.206 25.382-87.116 39.267 0 0 47.527-52.067 47.527-91.442 0-39.376-13.02-102.615 64.676-113.246 71.451-9.762 69.122 75.823 69.122 75.823z"
        fill="#414141"
      />
      <path
        d="M42.394 209.975c-.741 0-1.482-.434-1.8-1.085-.423-.868-.318-1.844.318-2.495.423-.542 46.998-51.85 46.998-89.923 0-4.665-.212-9.763-.423-15.078C86.11 63.104 84.1 10.603 154.386 1.057c19.9-2.712 36.201 1.627 48.269 12.8 12.702 11.715 18.312 28.853 20.747 41.22 2.646 13.233 2.434 23.646 2.434 24.08 0 .76-.423 1.41-1.058 1.736-.635.433-1.376.433-2.011.108-.106 0-1.377-.65-3.494-1.844-8.891-4.881-27.733-16.27-35.99-30.59l-.952 17.248c0 .65-.318 1.193-.847 1.627a2.032 2.032 0 01-1.694.434c-.211 0-22.017-4.773-36.625 5.098-6.668 4.556-11.008 11.498-12.702 20.827-.106.868-.847 1.518-1.588 1.735-.847.217-1.693-.108-2.223-.867-2.011-2.82-8.256-10.414-13.231-10.522-1.482 0-2.752.65-4.023 2.17-3.599 4.555-3.705 8.894-3.281 11.606.635 3.796 2.858 6.942 4.657 8.135 2.753 1.736 12.809 3.146 18.525 3.58 1.058.108 1.905.976 1.905 2.061.318 8.786 1.905 52.717.212 57.599-1.271 3.579-7.092 10.196-19.266 17.355-16.407 9.546-39.8 17.356-69.333 23.322h-.423zM165.5 4.637c-3.387 0-6.88.217-10.585.759-66.476 9.003-64.676 57.165-63.194 95.889.212 5.316.423 10.414.423 15.187 0 16.813-8.15 37.531-24.134 61.72-7.516 11.39-15.137 20.827-19.689 26.251 26.252-5.749 46.999-13.017 61.924-21.586 12.491-7.268 16.831-13.234 17.36-14.97.953-2.82.529-29.613-.423-54.019-4.446-.434-14.82-1.627-18.525-4.013-2.646-1.627-5.716-5.749-6.668-11.065-.636-3.688-.424-9.328 4.128-15.077 2.011-2.603 4.552-3.797 7.41-3.797 5.398.109 10.691 5.207 13.866 8.787 2.435-8.353 6.881-14.753 13.549-19.2 13.338-9.003 31.015-7.16 37.472-6.183l1.376-24.623c.106-1.085.953-1.953 2.012-2.061 1.058-.109 2.011.65 2.222 1.735 3.176 17.248 29.428 32.76 37.472 37.098.106 0 .106.109.212.109-.318-10.305-3.07-41.22-21.806-58.467-9.103-8.352-20.641-12.474-34.402-12.474z"
        fill="#000"
      />
      <path
        d="M223.719 75.903s-1.27-.543-3.387-1.627c-1.482-18.657-7.41-63.24-65.735-68.555 71.451-9.003 69.122 70.182 69.122 70.182z"
        fill="#F5F5F5"
      />
      <path
        d="M256.047 313.61s6.669-30.155 6.14-54.996c-.424-24.84 1.905-37.206 0-39.917-1.906-2.712-8.68-13.126.741-28.529 9.315-15.403 0-35.795 0-35.795s6.669-1.844 11.538 6.399c4.869 8.136 5.292 25.817 5.292 25.817l60.231-32.325s18.63-1.193 6.668 13.342c-11.961 14.535-18.63 20.827-18.63 20.827s2.964 5.857-8.468 14.535-26.04 9.98-26.992 19.959c-.847 9.979 10.691 112.92 10.691 112.92s-37.79 3.796-47.211-22.237z"
        fill="#fff"
      />
      <path
        d="M297.859 338.016c-3.81 0-9.209-.325-15.031-1.518-14.713-3.146-24.664-10.739-28.686-22.129-.106-.434-.212-.868-.106-1.193.106-.325 6.563-30.264 6.14-54.562-.212-11.823.211-20.826.529-27.335.212-5.315.529-10.413-.106-11.389-6.139-9.003-5.928-20.068.635-30.915 8.68-14.21 0-33.518-.106-33.735a1.907 1.907 0 010-1.844c.318-.542.741-.976 1.376-1.193.318-.108 8.257-2.169 13.973 7.268 3.811 6.4 5.081 17.789 5.398 23.538l57.267-30.806c.212-.108.529-.217.847-.217.952-.108 9.738-.434 12.279 4.664 1.587 3.146.317 7.16-3.917 12.258-9.527 11.498-15.56 17.898-17.783 20.067.423 2.712-.106 8.461-9.633 15.62-4.34 3.254-9.209 5.532-13.443 7.593-7.622 3.58-12.279 6.075-12.702 10.848-.636 7.701 6.668 76.906 10.691 112.485.105.543-.106 1.194-.424 1.627-.317.434-.847.76-1.482.76-.106-.109-2.328.108-5.716.108zm-39.589-24.623c3.705 9.762 12.279 16.054 25.405 18.766 7.304 1.518 14.078 1.518 17.36 1.301-1.694-15.511-11.221-101.747-10.374-111.075.635-7.593 7.728-10.848 15.137-14.427 4.234-2.061 8.68-4.122 12.703-7.159 9.526-7.159 7.833-11.824 7.833-11.824-.424-.868-.212-1.844.423-2.495.106-.108 6.669-6.508 18.418-20.718 3.917-4.773 3.599-6.834 3.282-7.484-.847-1.736-4.975-2.387-7.833-2.278l-59.807 32.107a2.19 2.19 0 01-2.011 0c-.635-.325-1.059-1.084-1.059-1.844 0-.217-.529-17.247-4.975-24.731-2.223-3.688-4.763-4.99-6.669-5.315 2.329 6.508 6.457 22.019-1.376 34.819-5.716 9.437-6.033 18.549-.741 26.142 1.376 2.061 1.271 5.749.847 14.101-.317 6.509-.741 15.404-.529 27.119.529 22.887-5.081 50.439-6.034 54.995z"
        fill="#000"
      />
      <path
        d="M275.375 214.205s3.917-21.26 15.667-22.454c11.749-1.193 28.474-5.206 29.109-20.067.635-14.861.635-17.79 3.387-17.247 2.753.542 7.834 20.176 4.975 34.169"
        fill="#fff"
      />
      <path
        d="M275.375 216.374h-.423c-1.164-.216-1.905-1.41-1.694-2.494.212-.977 4.34-22.888 17.572-24.19 12.067-1.193 26.675-5.315 27.204-18.006l.106-1.736c.529-11.932.635-15.186 2.646-16.813.847-.651 1.906-.868 3.176-.651.952.217 1.693.868 2.434 1.953 3.388 5.098 6.669 22.345 4.235 34.819-.212 1.194-1.377 1.953-2.541 1.736-1.164-.217-1.905-1.41-1.694-2.603 2.329-11.932-1.164-27.335-3.281-31.132-.423 1.953-.635 6.725-.847 12.908l-.106 1.736c-.423 8.786-6.033 19.742-31.015 22.128-8.362.868-12.808 15.186-13.866 20.61 0 1.085-.847 1.735-1.906 1.735zM172.063 79.916c-.529 0-1.164-.217-1.588-.759-4.34-4.881-15.56-1.302-19.583.542-1.058.434-2.328 0-2.752-1.084-.423-1.085 0-2.387 1.059-2.82.741-.326 17.148-7.594 24.346.542.741.867.741 2.278-.106 3.037-.317.325-.847.542-1.376.542zM180.108 112.133c-1.059 0-2.011-.868-2.117-2.061-.106-1.194.847-2.278 2.011-2.278 1.27-.109 2.223-.434 2.646-1.193.635-.977.53-2.387.318-3.363-.106-.217-.106-.542-.212-.759-.847-2.604-1.588-4.99.212-18.115.529-3.905 2.223-6.834 5.187-8.57 7.092-4.447 18.841-.216 19.371-.108 1.058.434 1.693 1.627 1.27 2.82-.423 1.085-1.588 1.736-2.752 1.302-2.858-1.085-11.221-3.146-15.666-.326-1.8 1.085-2.858 2.93-3.176 5.424-1.588 12.149-.953 14.21-.318 16.162.106.326.212.543.318.868.741 2.604.423 5.207-.847 7.051-.847 1.193-2.54 2.82-5.822 3.037-.317.109-.423.109-.423.109zM173.545 124.932c-2.858 0-5.398-.65-7.621-1.844-5.505-3.037-6.881-8.569-6.881-8.786-.317-1.193.424-2.386 1.588-2.603 1.164-.326 2.223.434 2.54 1.518 0 .109 1.059 4.014 4.87 6.075 3.387 1.844 7.939 1.735 13.655-.326 1.058-.433 2.328.217 2.752 1.302.423 1.085-.212 2.386-1.27 2.82-3.599 1.194-6.775 1.844-9.633 1.844zM164.23 94.018c2.105 0 3.811-2.671 3.811-5.966 0-3.295-1.706-5.966-3.811-5.966s-3.811 2.67-3.811 5.966c0 3.295 1.706 5.966 3.811 5.966z"
        fill="#000"
      />
      <path
        d="M197.044 98.357c1.988 0 3.599-2.331 3.599-5.207s-1.611-5.207-3.599-5.207c-1.987 0-3.599 2.331-3.599 5.207s1.612 5.207 3.599 5.207z"
        fill="#000"
      />
      <path
        d="M186.777 316.928c-18.948 6.943-24.452 9.112-24.452 9.112l24.452-9.112z"
        fill="#fff"
      />
      <path
        d="M162.325 328.209a2.173 2.173 0 01-2.012-1.41c-.423-1.084.106-2.386 1.165-2.82.106 0 5.716-2.278 24.558-9.112 1.164-.434 2.328.217 2.752 1.302.423 1.085-.212 2.386-1.27 2.82-18.736 6.834-24.347 9.004-24.452 9.112-.212.108-.53.108-.741.108z"
        fill="#000"
      />
      <path
        d="M188.153 330.054c-18.948 6.942-24.452 9.111-24.452 9.111l24.452-9.111z"
        fill="#fff"
      />
      <path
        d="M163.595 341.335a2.172 2.172 0 01-2.011-1.411c-.424-1.084.105-2.386 1.164-2.82.106 0 5.716-2.278 24.558-9.111 1.164-.434 2.329.216 2.752 1.301.423 1.085-.212 2.387-1.27 2.82-18.736 6.834-24.346 9.004-24.452 9.112-.212 0-.424.109-.741.109z"
        fill="#000"
      />
    </svg>