<svg
      width="341"
      height="557"
      fill="none"
      xmlns="http://www.w3.org/2000/svg"
    >
      <path
        d="M124.04 168.013s-12.068-23.819 2.235-44.431c14.304-20.612 33.971-43.743 26.819-59.66-7.152-15.917-4.023-34.24 25.031-49.813C215.001-5.7 288.977-4.213 290.318 53.043c1.341 57.256-29.054 51.759-22.796 62.753 6.258 10.993 30.06 51.301 22.796 74.661-7.263 23.36-166.278-22.444-166.278-22.444z"
        fill="#E4E4E4"
      />
      <path
        d="M269.087 199.389c-18.215 0-43.805-4.695-64.925-9.161-40.34-8.474-80.234-19.925-80.569-20.039-.559-.115-1.117-.573-1.341-1.146-.559-1.03-12.515-25.307 2.347-46.835 2.011-2.863 4.246-5.954 6.258-8.817 12.739-17.75 25.925-36.071 20.337-48.553-6.369-14.314-7.151-35.04 26.037-52.79 24.584-13.169 65.595-17.406 91.744-1.603 15.086 9.046 23.243 23.818 23.69 42.484.894 38.59-12.627 49.812-19.779 55.881-4.246 3.55-4.358 3.894-3.241 5.84l.671 1.26c7.263 12.825 29.501 51.645 22.349 75.234-2.011 6.069-11.063 8.245-23.578 8.245zm-143.371-33.208c6.37 1.832 42.687 12.023 79.34 19.696 23.467 4.924 42.464 7.901 56.544 8.702 22.349 1.375 26.148-2.862 26.707-4.809 6.593-21.528-14.862-59.202-21.902-71.455l-.783-1.26c-3.128-5.496.671-8.588 4.358-11.68 7.152-5.955 18.997-15.803 18.215-52.217-.447-17.291-7.599-30.346-21.455-38.705-24.808-15.001-63.919-10.879-87.497 1.718-24.138 12.94-32.183 28.627-24.026 46.835 6.705 14.886-7.263 34.353-20.785 53.133-2.123 2.863-4.246 5.955-6.257 8.817-11.845 17.063-4.358 36.873-2.459 41.225z"
        fill="#000"
      />
      <path
        d="M205.168 31.63s-1.565 53.133 36.429 57.713c0 0 11.175-7.786 17.432 1.833 6.258 9.619-1.564 26.566-26.93 22.444 0 0-7.487 23.933-6.146 36.873 1.341 13.054 18.326 10.077 28.83 15.23 10.504 5.153-10.951 55.996-10.951 55.996L134.321 169.96l7.822-17.979 20.561-.801s34.195 13.283 30.619-27.941c0 0-33.971 6.183-28.607-59.203 0 0 7.598-28.284 40.452-32.407z"
        fill="#fff"
      />
      <path
        d="M243.832 223.894c-.335 0-.671-.114-.894-.229l-109.511-51.759c-1.118-.572-1.565-1.832-1.118-2.977l7.823-17.978c.335-.802 1.117-1.375 1.899-1.375l20.562-.801c.335 0 .558 0 .893.114.112 0 13.187 5.039 21.232-1.259 4.917-3.894 7.152-11.222 6.593-22.101-3.576.115-10.392-.802-16.65-6.642-10.281-9.619-14.303-28.17-12.18-55.194 0-.115 0-.23.112-.458.111-.344 2.123-7.672 8.38-15.46 5.7-7.214 16.315-16.374 33.971-18.55a2.03 2.03 0 011.788.572c.447.458.783 1.145.783 1.718 0 .458-1.006 50.385 33.635 55.31 1.9-1.146 6.817-3.665 11.957-2.635 3.241.687 5.811 2.52 7.822 5.611 3.241 4.924 3.241 11.566-.112 16.834-2.235 3.664-9.386 11.68-27.154 9.39-1.676 5.725-6.593 23.818-5.475 34.124.67 6.756 6.257 8.13 15.309 9.963 4.134.801 8.492 1.717 12.18 3.435 5.699 2.748 5.587 13.169-.335 32.636-4.023 13.283-9.387 26.108-9.499 26.337a2.238 2.238 0 01-1.229 1.26c-.223.114-.447.114-.782.114zm-106.494-55.08l105.377 49.813c11.621-28.055 15.197-48.897 11.174-50.843-3.24-1.603-7.263-2.29-11.063-3.092-8.381-1.603-17.879-3.55-18.997-13.97-1.341-13.398 5.923-36.873 6.258-37.789a2.33 2.33 0 012.459-1.603c16.538 2.633 22.684-4.008 24.584-7.1 2.346-3.779 2.458-8.36.112-11.795-1.341-2.061-2.906-3.206-4.917-3.664-4.47-.916-9.275 2.405-9.387 2.405a1.902 1.902 0 01-1.564.343c-34.418-4.122-37.994-46.148-38.329-57.37-27.825 4.695-35.312 27.597-35.983 30.23-2.011 24.964 1.677 42.714 10.616 51.188 7.152 6.756 15.086 5.382 15.421 5.382.671-.115 1.229 0 1.788.458.447.343.782.916.894 1.603 1.229 13.741-1.564 23.246-8.157 28.399-9.164 7.099-22.461 2.977-25.031 2.061l-18.662.801-6.593 14.543z"
        fill="#000"
      />
      <path
        d="M183.377 90.145c-.782 0-1.564-.458-2.011-1.26-.559-1.145-.112-2.519.894-3.092.112 0 9.498-5.267 12.739-14.886 2.794-8.36-12.404-15.23-12.627-15.344-1.118-.459-1.677-1.833-1.23-2.978.447-1.145 1.788-1.718 2.906-1.26.782.344 19.332 8.474 15.086 21.07-3.8 11.337-14.528 17.177-14.975 17.406 0 .23-.447.344-.782.344zM188.406 116.254c-1.229 0-2.235-1.031-2.235-2.291 0-1.259 1.006-2.29 2.235-2.29 3.576 0 7.599-2.977 10.727-6.069-11.286 1.374-19.667-5.038-20.114-5.382-1.006-.802-1.117-2.176-.447-3.206.671-1.03 2.123-1.145 3.129-.458.447.343 10.616 8.015 22.908 2.748.894-.344 2.011-.115 2.57.687.671.802.671 1.947.112 2.748-.335.687-9.275 13.513-18.885 13.513zM210.085 91.176c2.715 0 4.916-2.256 4.916-5.039S212.8 81.1 210.085 81.1c-2.716 0-4.917 2.255-4.917 5.038 0 2.783 2.201 5.039 4.917 5.039z"
        fill="#000"
      />
      <path
        d="M183.712 74.228c2.407 0 4.359-2 4.359-4.466 0-2.467-1.952-4.466-4.359-4.466-2.406 0-4.358 2-4.358 4.466s1.952 4.466 4.358 4.466z"
        fill="#000"
      />
      <path
        d="M70.067 322.718s4.134 49.927 38.664 57.828c34.529 7.902 47.268 8.474 47.268 8.474l-33.076-62.867-52.856-3.435z"
        fill="#fff"
      />
      <path
        d="M155.999 391.31c-.67 0-13.409-.687-47.715-8.588-14.862-3.435-26.596-14.886-33.86-33.208-5.363-13.627-6.48-26.109-6.592-26.567 0-.687.223-1.374.67-1.832.447-.458 1.118-.687 1.788-.687l52.856 3.435c.782 0 1.453.458 1.788 1.145l33.077 62.867c.335.687.335 1.603-.112 2.29-.335.802-1.117 1.145-1.9 1.145zm-83.362-66.187c1.453 10.191 8.604 46.72 36.653 53.133 23.354 5.382 36.764 7.329 42.798 8.016l-30.506-58.057-48.945-3.092z"
        fill="#000"
      />
      <path
        d="M337.028 554.604H73.531c-.224-9.276-.112-18.207.223-26.91 5.029-116.001 61.125-180.013 61.125-180.013L89.734 238.323c5.364-77.181 45.257-87.372 63.695-87.83h4.247c3.129.114 5.028.572 5.028.572 2.906 20.154 10.951 34.468 44.14 39.392 33.077 4.924 47.939-24.734 47.939-24.734 78.222 10.42 73.529 138.444 73.529 138.444-24.361-10.077-52.074 9.505-52.074 9.505l-6.369-29.659c-5.252 20.727-19.668 27.941-19.668 27.941 50.845 11.795 86.827 242.65 86.827 242.65z"
        fill="#000"
      />
      <path
        d="M337.028 556.894H73.531c-1.23 0-2.235-1.031-2.235-2.176-.224-9.046-.112-18.207.223-27.139 2.57-60.348 19.22-106.381 32.742-134.437 12.627-26.337 24.696-41.796 28.048-45.919L87.723 239.239c-.112-.344-.224-.687-.224-1.031 2.347-34.124 11.622-59.088 27.601-74.203 13.298-12.482 28.049-15.459 38.218-15.803h4.469c3.241.115 5.252.573 5.364.573.894.229 1.676.916 1.788 1.947 2.794 19.581 10.839 32.75 42.24 37.445 31.177 4.695 45.481-23.246 45.593-23.59.447-.916 1.341-1.374 2.235-1.259 32.965 4.466 56.431 30.345 67.941 74.89 8.605 33.209 7.487 65.616 7.487 65.959 0 .802-.447 1.374-1.006 1.832-.558.458-1.34.458-2.011.229-11.845-4.924-24.808-2.176-33.524.916-9.61 3.436-16.426 8.245-16.538 8.245-.559.458-1.341.573-2.123.229-.671-.229-1.23-.916-1.341-1.603l-4.694-21.643c-4.134 9.848-10.169 15.688-14.191 18.78 20.449 9.619 40.452 51.874 59.56 125.848 15.198 58.63 24.249 116.573 24.361 117.146a2.145 2.145 0 01-.559 1.832c-.447.458-.67.916-1.341.916zm-261.262-4.58h258.692c-2.011-12.024-10.616-62.753-23.914-114.054-25.031-96.762-46.933-120.924-60.901-124.13-.894-.23-1.565-1.031-1.677-1.947-.111-.916.448-1.947 1.23-2.29.111-.115 13.633-6.986 18.438-26.453.223-1.03 1.117-1.717 2.235-1.717 1.005 0 1.899.801 2.123 1.832l5.699 26.452c7.375-4.466 28.384-15.459 48.386-9.046 0-8.818-.559-34.926-7.487-61.608-11.063-42.483-32.071-66.416-62.689-71.226-3.353 5.497-16.762 25.193-41.905 25.193-2.459 0-4.917-.229-7.599-.573-33.077-4.924-42.464-19.467-45.704-39.621-.782-.114-1.9-.229-3.129-.229a25.03 25.03 0 00-4.135 0c-9.386.229-23.131 2.978-35.311 14.543-15.086 14.2-23.802 38.018-26.15 70.654l44.923 108.786c.335.801.223 1.718-.447 2.405-.559.687-55.65 64.928-60.566 178.638-.224 7.901-.336 16.146-.112 24.391z"
        fill="#000"
      />
      <path
        d="M113.089 247.255c-1.229 0-2.235-1.031-2.235-2.29.112-25.078 6.146-42.828 17.991-53.019 9.052-7.787 17.991-7.902 18.438-7.902 1.229 0 2.235 1.031 2.235 2.291 0 1.259-1.006 2.29-2.235 2.29-1.341 0-31.736.916-31.847 56.34-.112 1.259-1.118 2.29-2.347 2.29z"
        fill="#000"
      />
      <path
        d="M103.143 242.445c14.304 71.341 45.816 106.496 45.816 106.496s-57.66 78.441-72.97 179.898c5.029-116 61.125-180.012 61.125-180.012L91.969 239.468c5.364-77.181 45.257-87.372 63.695-87.83 1.565 0 3.017 1.488 4.247 1.488-32.072 2.176-67.272 36.759-56.768 89.319zM220.116 324.402c-.782.459-1.788.229-2.346-.572-2.347-3.321-8.158-12.711-7.711-22.559.559-12.367-2.905-23.704-6.481-27.597-3.576-3.894-9.275-11.337-4.805-12.367 4.358-1.031 12.739 2.862 17.432 9.504 3.241 4.466 7.487 8.817 9.946 10.993a1.85 1.85 0 002.905-.572l7.711-14.887a1.962 1.962 0 00-.224-2.061l-7.487-12.596c-.559-.687-2.905-6.069-2.347-6.757l3.241-3.206c.671-.916 3.911 1.832 4.693 2.634 1.565 1.489 4.023-.458 2.906-2.29l-2.906-5.039c-.447-.687-2.57-6.298-2.011-6.985l2.682-4.008c.782-1.031 6.146 2.519 6.816 3.55l18.439 29.887.335.344c.782.802 4.134 4.58-.112 11.451-4.582 7.214-29.277 44.202-32.071 48.324a1.154 1.154 0 01-.671.573l-7.934 4.236z"
        fill="#fff"
      />
      <path
        d="M219.736 324.818c-1.229 0-2.57-.572-3.353-1.718-2.57-3.778-8.604-13.512-8.157-24.047.447-11.566-2.682-22.444-5.811-25.994-5.364-5.955-7.71-10.421-6.816-13.283.223-.802 1.005-2.291 3.128-2.863 5.699-1.374 14.863 3.435 19.779 10.306 2.906 4.122 6.929 8.13 9.164 10.306l7.375-14.314-7.487-12.596c-.782-1.26-3.911-6.986-2.235-9.276.112-.114.112-.229.223-.343l3.241-3.092c.447-.573 1.118-.802 1.788-.916 1.341-.115 3.017.916 4.358 1.946l-1.676-2.977c0-.114-3.464-6.985-2.011-9.39l2.681-4.008.112-.114c.335-.458 1.118-1.145 2.459-1.031 2.458.115 7.04 3.321 8.045 4.81l18.438 29.887c.894.802 5.364 5.955.112 14.314-4.693 7.443-30.953 46.721-32.071 48.439a3.11 3.11 0 01-1.453 1.259l-7.71 4.237c-.782.229-1.453.458-2.123.458zm-19.891-63.554c.223 1.26 2.011 4.352 5.811 8.589 3.799 4.236 7.598 15.917 7.04 29.315-.336 8.817 4.693 17.405 7.151 20.841l7.264-4.008c1.788-2.634 27.378-40.881 31.959-48.21 3.241-5.267 1.23-7.901.447-8.588-.223-.229-.447-.458-.67-.802l-18.327-29.773c-.558-.572-2.57-1.946-3.799-2.519l-1.564 2.405c.335 1.26 1.452 4.466 1.788 5.153l2.905 5.038c1.006 1.833.67 4.123-1.006 5.382-1.676 1.26-3.911 1.146-5.364-.229-.558-.572-1.676-1.488-2.346-1.946l-1.788 1.717c.335 1.375 1.453 3.894 1.788 4.466.112.115.112.115.112.229l7.375 12.482c.894 1.26 1.117 2.977.335 4.466l-7.71 15.001c-.559 1.145-1.677 1.947-2.906 2.176-1.229.229-2.458-.115-3.464-1.031-2.347-2.175-6.816-6.641-10.169-11.336-4.246-6.299-11.622-9.39-14.862-8.818z"
        fill="#000"
      />
      <path
        d="M232.379 263.999s14.638-2.519 20.896 0c6.258 2.52 8.381 33.552 0 48.668-8.381 15.115 31.736 44.659 32.63 47.293.894 2.634-10.728-34.01-10.392-42.942.335-8.932 31.624-12.939 31.624-12.939l20.561-2.405s13.41 72.371 10.839 89.09c-2.458 16.718-20.114 45.003-44.698 35.498-24.696-9.39-72.747-86.57-72.747-86.57s-4.581-18.551 0-25.307c4.805-6.986 22.349-29.773 24.696-32.98 0 0 5.923-5.611 1.453-8.016-4.582-2.061-23.132-2.748-14.862-9.39z"
        fill="#fff"
      />
      <path
        d="M303.561 430.499c-3.464 0-7.04-.687-10.504-2.061-25.032-9.619-71.853-84.28-73.865-87.487l-.335-.687c-.447-1.947-4.693-19.696.335-27.139 3.241-4.695 12.069-16.375 18.55-24.849 3.017-4.008 5.476-7.214 6.146-8.245.112-.114.224-.229.224-.344 1.229-1.145 2.458-3.091 2.347-3.893 0-.114-.224-.229-.448-.343-1.005-.573-3.464-1.031-5.81-1.604-5.811-1.259-11.398-2.404-12.181-6.183-.447-1.947.559-3.894 2.906-5.726.335-.229.67-.343 1.006-.458 1.564-.229 15.42-2.634 22.125.115 1.9.801 3.464 2.862 4.582 6.298 3.352 9.962 3.687 32.636-3.464 45.69-5.476 9.962 15.979 29.544 26.037 38.59-3.8-12.939-8.27-29.544-8.046-35.384.447-10.077 25.813-14.085 33.635-15.115l20.562-2.405c1.117-.115 2.235.687 2.458 1.832.559 2.977 13.41 72.944 10.839 89.892-1.787 11.794-10.057 27.597-22.461 35.155-4.693 2.863-9.61 4.351-14.638 4.351zm-80.346-91.609c3.353 5.382 48.498 76.494 71.406 85.311 7.375 2.863 14.639 2.176 21.344-1.832 11.062-6.642 18.773-21.414 20.337-31.834 2.235-14.543-8.381-74.204-10.504-86.228l-18.438 2.176c-14.192 1.832-29.501 6.527-29.724 10.764-.224 4.695 3.576 20.269 10.169 41.568 0 .115.111.229.111.344.447 1.603-.111 2.748-1.341 3.091-.782.229-2.123.115-2.793-1.259-.559-.687-2.682-2.634-4.805-4.466-12.292-10.993-35.089-31.491-27.713-44.889 6.481-11.794 6.146-32.979 3.128-41.911-1.005-3.092-2.011-3.435-2.011-3.55-4.47-1.832-14.75-.687-19.109 0-.335.344-.558.573-.67.802 1.229 1.03 6.146 2.175 8.716 2.633 2.906.573 5.364 1.146 6.928 1.947 2.124 1.031 2.682 2.634 2.906 3.779.447 3.435-2.682 6.756-3.576 7.672-.894 1.26-3.241 4.237-6.146 8.131-6.034 8.015-15.198 20.039-18.326 24.62-3.018 4.351-1.565 16.26.111 23.131z"
        fill="#000"
      />
      <path
        d="M6.016 263.859l-3.464-16.032s-2.905-14.428 13.857-14.428h118.674s15.644-3.321 21.455 20.956c5.811 24.276 19.667 75.921 19.667 75.921s8.717 19.123-11.621 18.436c-20.338-.687-138.9-2.405-138.9-2.405L6.015 263.859z"
        fill="#E4E4E4"
      />
      <path
        d="M165.701 351.117h-1.117c-20.003-.687-137.783-2.405-138.9-2.405-1.006 0-1.9-.687-2.124-1.718L3.893 264.546.429 248.514c-.112-.343-1.341-6.87 2.682-11.909 2.793-3.55 7.263-5.267 13.41-5.267h118.562c2.347-.344 17.991-1.603 23.802 22.673 5.587 23.36 18.773 72.486 19.667 75.692.559 1.374 4.023 10.077.112 16.146-2.459 3.436-6.817 5.268-12.963 5.268zm-138.23-7.1c14.75.229 118.563 1.832 137.336 2.405 5.141.229 8.493-.916 10.058-3.321 2.346-3.55.447-9.733-.559-11.909 0-.115-.112-.229-.112-.344-.112-.572-13.968-51.988-19.667-76.035-5.141-21.758-18.215-19.353-18.774-19.238H16.408c-4.693 0-8.045 1.145-9.945 3.55-2.682 3.32-1.788 8.13-1.788 8.13l3.464 15.917 19.332 80.845z"
        fill="#000"
      />
      <path
        d="M9.77 270.352s-7.71 7.901-3.241 12.024c4.47 4.122 5.7 5.496 12.516 5.84 6.816.343 25.142 2.863 25.142 2.863s7.264-3.894-3.687-10.421c-10.84-6.413-30.73-10.306-30.73-10.306z"
        fill="#fff"
      />
      <path
        d="M44.188 293.483h-.336c-.223 0-18.214-2.519-24.92-2.862-7.486-.344-9.274-2.062-13.52-6.07l-.447-.343c-1.341-1.26-2.124-2.863-2.124-4.695-.111-4.924 4.694-10.077 5.252-10.65.56-.572 1.23-.801 2.012-.687.782.115 20.338 4.008 31.512 10.65 4.917 2.863 7.152 5.84 7.152 8.932-.112 3.55-3.24 5.267-3.576 5.496-.335.115-.67.229-1.005.229zm-33.636-20.612c-1.453 1.718-3.24 4.466-3.129 6.413 0 .572.223 1.03.67 1.489l.447.343c3.912 3.664 4.917 4.581 10.728 4.924 6.146.344 20.673 2.29 24.472 2.748.336-.343.67-.687.67-1.145 0-.343-.222-2.061-4.916-4.809-9.051-5.382-24.472-8.932-28.942-9.963z"
        fill="#000"
      />
      <path
        d="M10.328 286.956s-7.71 7.901-3.24 12.024c4.47 4.122 5.699 5.496 12.515 5.84 6.817.344 25.143 2.863 25.143 2.863s7.264-3.894-3.687-10.421c-10.84-6.527-30.73-10.306-30.73-10.306z"
        fill="#fff"
      />
      <path
        d="M44.746 309.973h-.335c-.224 0-18.215-2.519-24.92-2.863-7.486-.343-9.274-2.061-13.52-6.069l-.448-.343c-1.34-1.26-2.123-2.863-2.123-4.695-.112-4.924 4.693-10.077 5.252-10.65.559-.573 1.23-.802 2.012-.687.782.114 20.337 4.008 31.512 10.649 4.917 2.863 7.152 5.841 7.152 8.932-.112 3.55-3.24 5.268-3.576 5.497-.335.114-.67.229-1.006.229zm-33.635-20.498c-1.453 1.718-3.241 4.466-3.13 6.413 0 .573.224 1.031.671 1.489l.447.343c3.911 3.665 4.917 4.581 10.728 4.924 6.146.344 20.673 2.29 24.472 2.749.335-.344.67-.688.67-1.146 0-.343-.223-2.061-4.916-4.809-8.94-5.497-24.473-9.046-28.942-9.963z"
        fill="#000"
      />
      <path
        d="M8.797 301.681s-7.71 7.902-3.24 12.024c4.47 4.123 5.698 5.497 12.515 5.84 6.816.344 25.143 2.863 25.143 2.863s7.263-3.893-3.688-10.421c-10.951-6.412-30.73-10.306-30.73-10.306z"
        fill="#fff"
      />
      <path
        d="M43.215 324.698h-.336c-.223 0-18.214-2.519-24.919-2.862-7.487-.344-9.275-2.062-13.521-6.07l-.447-.343c-1.341-1.26-2.123-2.863-2.123-4.695-.112-4.924 4.693-10.077 5.252-10.65.558-.572 1.229-.801 2.011-.687.782.115 20.338 4.008 31.513 10.65 4.916 2.863 7.151 5.84 7.151 8.932-.111 3.55-3.24 5.267-3.575 5.496-.336.115-.671.229-1.006.229zM9.579 304.201c-1.453 1.717-3.24 4.466-3.129 6.412 0 .573.224 1.031.67 1.489l.448.344c3.91 3.664 4.917 4.58 10.727 4.924 6.146.343 20.673 2.29 24.473 2.748.335-.344.67-.687.67-1.145 0-.344-.223-2.061-4.917-4.81-9.051-5.496-24.584-9.046-28.942-9.962zM215.001 3.345s64.254 12.596 27.043 83.937l15.197-1.26s30.172-32.635 4.694-76.608c0 0-20.45-6.756-46.934-6.069z"
        fill="#000"
      />
    </svg>