<svg
      height="696"
      width="467"
      viewbox="0 0 467 696"
      fill="none"
      xmlns="http://www.w3.org/2000/svg"
    >
    <path
        d="M55.106 448.371c-19.336-29.625-14.63-58.277-.89-71.576 8.638-8.362 12.646-21.598 10.119-34.501-7.264-37.101 6.799-62.161 21.223-72.295 8.65-6.077 14.08-16.913 14.254-28.862.691-47.111 29.682-78.237 59.109-76.324 8.587.558 17.009-3.637 22.589-11.422 27.237-38.006 101.901-39.444 121.225 9.602 4.952 12.572 15.822 20.494 27.459 19.433 28.984-2.642 47.602 35.837 45.636 71.262-.969 17.468 9.277 32.764 23.781 35.736 36.363 7.449 35.859 52.833 19.776 84.328-6.79 13.295-4.826 30.129 4.466 41.076 3.44 4.053 5.626 8.694 6.858 13.538 5.425 21.328-8.558 42.717-27.29 42.686-216.216-.343-301.325-7.085-328.79-10.121-7.676-.85-14.796-5.316-19.525-12.56z"
        fill="#A1DBFF"
      />
      <path
        d="M312.423 382.052h89.802s-8.271-37.285-28.949-13.231c-20.679 24.057-40.174-68.555-60.853 13.231zM266.721 251.358h88.896s2.602-18.381-18.226-11.028-4.462-24.1-21.945-15.929c-17.481 8.168-9.67-9.396-19.713-7.353-10.042 2.042-29.012 6.945-29.012 34.31zM177.6 195.776h78.163s-5.778-21.468-18.248-10.734c-12.469 10.734-11.862-25.941-28.132-17.889-16.271 8.05-13.231-15.653-26.308-5.366-13.079 10.286-17.64 33.989-5.475 33.989z"
        fill="#fff"
      />
      <path
        d="M171.306 394.081s38.994-43.573 60.825-9.341c21.832 34.232 70.748-148.097 107.15-70.8 36.404 77.296 31.853 168.305 56.88 128.084 25.027-40.221 34.127 69.92 34.127 69.92H172.325l-1.019-117.863z"
        fill="#E1BFFF"
      />
      <path
        d="M177.231 322.61c10.151-11.244 7.621-23.902.835-26.379-6.785-2.477-21.75 16.667-24.181 5.374-2.43-11.292-1.804-14.127 8.024-19.005 9.828-4.878 20.267-11.454 12.246-18.155-8.022-6.702-18.559 15.457-25.105 4.112-6.546-11.346 27.006-22.514 19.048-33.764-7.958-11.251-15.351 10.567-20.399 6.996-5.049-3.571 12.905-34.847-4.952-36.102-17.857-1.255-3.198 35.676-7.099 37.218-3.901 1.541-8.388-5.682-12.704.29-4.316 5.973 11.179 19.447 10.346 27.131-.832 7.685-9.394-2.435-18.764 3.358s17.376 18.993 15.084 23.172c-2.292 4.179-12.961-6.651-18.933.096-5.974 6.748.948 33.455 22.589 41.696 21.64 8.242 43.965-16.038 43.965-16.038z"
        fill="#FFFDBE"
      />
      <path
        d="M178.066 297.152c-6.786-2.477-21.75 16.667-24.181 5.374-2.43-11.292-1.804-14.128 8.024-19.006 9.828-4.877 20.267-11.454 12.246-18.154-8.022-6.701-18.559 15.457-25.105 4.111-6.546-11.345 27.005-22.513 19.048-33.764-7.958-11.25-15.349 10.567-20.399 6.996-5.049-3.571 12.905-34.847-4.952-36.101-.192-.014-.376-.017-.561-.022l-1.189 134.629c18.915 1.139 36.235-17.685 36.235-17.685 10.15-11.243 7.62-23.902.834-26.378z"
        fill="url(#prefix__paint0_linear_930_2)"
        opacity="0.2"
      />
      <path
        d="M141.027 472.053l-1.498-.012 3.003-255.096-1.505 255.108z"
        fill="#482E54"
      />
      <path
        d="M170.518 310.637s-.679.745-1.966 1.956a62.655 62.655 0 01-2.381 2.126c-.947.79-2.022 1.678-3.263 2.561-2.454 1.8-5.494 3.697-9.005 5.25-1.77.733-3.631 1.455-5.615 1.882-1.97.452-4.032.747-6.098.668-1.037.027-2.056-.171-3.077-.283-.503-.103-1-.233-1.497-.347l-.745-.177-.716-.257-1.422-.513c-.448-.221-.895-.442-1.338-.659-.912-.397-1.691-.987-2.504-1.492-.812-.508-1.487-1.166-2.215-1.724-.706-.583-1.295-1.26-1.923-1.86-.645-.59-1.116-1.296-1.656-1.906l-.765-.926c-.224-.321-.444-.637-.658-.947l-1.228-1.78c-.356-.585-.669-1.154-.976-1.682l-.85-1.481c-.25-.464-.447-.907-.641-1.298l-1.198-2.47 1.242 2.449c.202.387.407.825.664 1.285l.877 1.465c.316.522.638 1.083 1.004 1.661l1.238 1.763.661.939.768.917c.541.604 1.014 1.304 1.658 1.886.629.593 1.217 1.262 1.923 1.836.725.549 1.398 1.198 2.206 1.695.808.495 1.583 1.075 2.487 1.461l1.326.644 1.407.498.707.25.735.17c.492.109.983.235 1.478.333 1.009.103 2.014.292 3.036.261 2.037.09 4.076-.189 6.031-.625 1.968-.411 3.82-1.117 5.584-1.835 3.5-1.524 6.542-3.395 9-5.175 1.239-.879 2.328-1.746 3.289-2.516a62.352 62.352 0 002.416-2.081c1.306-1.19 2-1.922 2-1.922zM163.323 240.14s-.263.534-.846 1.404a30.14 30.14 0 01-2.674 3.417c-2.399 2.663-6.023 5.995-10.476 8.072-1.124.481-2.273.918-3.452 1.193-1.177.27-2.362.46-3.518.452-1.156.037-2.267-.124-3.299-.338a15.128 15.128 0 01-2.795-.973c-.406-.211-.808-.388-1.165-.601l-.992-.636c-.603-.424-1.1-.834-1.514-1.16l-1.215-1.123s.453.396 1.248 1.087c.423.313.929.707 1.542 1.11l1.003.602c.36.202.758.378 1.161.581.823.377 1.757.693 2.77.933 1.019.199 2.115.349 3.251.301 1.137-.003 2.302-.203 3.458-.481 1.158-.282 2.287-.724 3.39-1.208 4.417-2.006 8.066-5.285 10.482-7.914 1.216-1.321 2.151-2.489 2.753-3.342.608-.848.888-1.376.888-1.376zM166.971 273.736l-1.7 1.276-2.012 1.39c-.805.494-1.688 1.096-2.706 1.663-1.016.572-2.113 1.199-3.324 1.773-1.183.626-2.498 1.151-3.837 1.737-.68.27-1.387.509-2.094.769l-1.071.384-1.106.317c-.743.202-1.48.453-2.243.617l-2.302.476c-.765.176-1.557.199-2.331.305-.778.087-1.55.192-2.326.175-.774.012-1.541.023-2.299.036-.756-.04-1.501-.127-2.234-.186l-1.09-.098c-.359-.038-.706-.136-1.053-.2l-2.032-.419c-1.304-.326-2.487-.806-3.606-1.157-1.073-.462-2.022-.968-2.876-1.378l-.618-.304-.534-.352-.938-.619-1.777-1.173 1.805 1.132.951.596.538.338.623.289c.863.389 1.818.869 2.886 1.326 1.116.34 2.295.808 3.593 1.121l2.02.401c.345.06.689.155 1.046.19.358.03.72.058 1.083.089.729.053 1.468.134 2.218.168l2.28-.054c.769.013 1.535-.098 2.306-.191.767-.111 1.55-.14 2.31-.319l2.288-.455c.759-.156 1.494-.402 2.234-.596l1.102-.307 1.068-.373c.705-.255 1.41-.487 2.089-.75 1.338-.575 2.652-1.086 3.837-1.702 1.21-.563 2.31-1.179 3.327-1.742s1.912-1.141 2.728-1.616l2.041-1.342c1.106-.784 1.736-1.235 1.736-1.235z"
        fill="#482E54"
      />
      <path
        d="M117.232 352.69c7.422-8.22 5.572-17.474.611-19.284-4.962-1.811-15.902 12.184-17.679 3.929-1.778-8.255-1.318-10.329 5.866-13.895 7.185-3.566 14.817-8.373 8.952-13.272-5.864-4.9-13.567 11.3-18.353 3.006-4.786-8.295 19.742-16.46 13.924-24.684-5.818-8.225-11.222 7.726-14.913 5.114-3.69-2.61 9.435-25.475-3.62-26.393-13.055-.917-2.339 26.081-5.19 27.208-2.854 1.127-6.134-4.154-9.289.213-3.155 4.367 8.173 14.217 7.564 19.835-.608 5.618-6.868-1.781-13.718 2.455-6.85 4.235 12.703 13.885 11.028 16.94-1.675 3.055-9.475-4.862-13.842.071-4.367 4.933.693 24.458 16.515 30.483 15.822 6.025 32.144-11.726 32.144-11.726z"
        fill="#FF989D"
      />
      <path
        d="M117.843 334.325c-4.962-1.81-15.902 12.185-17.679 3.929-1.776-8.256-1.318-10.329 5.866-13.895 7.185-3.566 14.817-8.373 8.952-13.273-5.864-4.899-13.567 11.301-18.353 3.006-4.786-8.294 19.742-16.459 13.924-24.683-5.818-8.225-11.222 7.725-14.913 5.114-3.69-2.611 9.435-25.476-3.62-26.393-.178-.013-.336 0-.506-.003l-.813 98.408c13.844.861 26.53-12.925 26.53-12.925 7.422-8.219 5.573-17.474.612-19.285z"
        fill="url(#prefix__paint1_linear_930_2)"
        opacity="0.2"
      />
      <path
        d="M90.965 474.841l-1.497-.011 2.397-199.39-.9 199.401z"
        fill="#482E54"
      />
      <path
        d="M112.323 343.936s-.495.545-1.432 1.435a41.425 41.425 0 01-4.117 3.439c-1.794 1.318-4.015 2.708-6.584 3.848-1.296.538-2.657 1.067-4.11 1.382-1.442.333-2.953.55-4.469.494-.76.02-1.507-.127-2.255-.209l-1.097-.255a5.936 5.936 0 01-1.07-.32l-1.042-.377-.98-.485c-.668-.291-1.238-.724-1.833-1.094-.595-.373-1.088-.855-1.62-1.264-.518-.427-.948-.922-1.407-1.363-.472-.432-.816-.949-1.21-1.396l-.56-.677-.48-.694c-.313-.453-.612-.889-.896-1.302l-.71-1.233c-.452-.77-.825-1.452-1.084-2.036l-.87-1.81.916 1.788c.273.578.662 1.249 1.133 2.007l.737 1.211c.288.409.59.839.907 1.287l.484.686.561.669c.397.441.742.952 1.213 1.376.46.432.89.92 1.405 1.338.53.4 1.022.874 1.612 1.235.59.361 1.156.783 1.816 1.064l.967.469 1.027.362c.34.135.69.236 1.053.304l1.079.242c.735.075 1.468.212 2.213.188 1.485.068 2.973-.135 4.4-.451 1.436-.299 2.789-.813 4.078-1.336 2.557-1.109 4.782-2.474 6.578-3.773 3.619-2.585 5.647-4.749 5.647-4.749zM107.064 292.397s-.19.393-.613 1.03a21.416 21.416 0 01-1.944 2.509c-1.752 1.951-4.398 4.394-7.659 5.923-1.636.721-3.413 1.196-5.112 1.197-.847.026-1.663-.095-2.418-.252-.751-.188-1.44-.43-2.047-.716a10.743 10.743 0 01-1.576-.913c-.44-.312-.802-.614-1.103-.854l-.884-.826s.333.288.917.789c.31.228.682.513 1.131.805.459.282.98.585 1.584.858a11.02 11.02 0 002.02.677c.744.144 1.543.251 2.37.215 1.661-.023 3.392-.512 4.99-1.241 3.225-1.456 5.896-3.847 7.664-5.763.89-.964 1.58-1.812 2.024-2.433.449-.619.656-1.005.656-1.005zM109.731 316.959l-1.239.939c-.808.572-1.962 1.397-3.442 2.245-.743.42-1.545.879-2.429 1.301-.865.459-1.826.844-2.805 1.275-1.008.36-2.03.799-3.124 1.081-.544.148-1.083.333-1.641.454l-1.684.35c-.56.129-1.141.144-1.707.222-.57.063-1.136.139-1.703.125l-1.683.023c-.553-.03-1.098-.094-1.636-.139-1.082-.042-2.085-.357-3.055-.528-.954-.24-1.82-.593-2.637-.851-.786-.339-1.478-.711-2.102-1.014a4.625 4.625 0 01-.84-.483l-.685-.456-1.296-.863a4844.876 4844.876 0 002.02 1.254c.246.169.53.323.851.455.633.281 1.331.629 2.112.962.814.247 1.676.587 2.625.815.963.159 1.958.462 3.03.49.533.038 1.073.096 1.62.121l1.664-.042c.561.008 1.121-.073 1.683-.142.56-.082 1.132-.104 1.686-.236l1.671-.329c.555-.113 1.091-.291 1.632-.432 1.09-.268 2.108-.693 3.113-1.04.978-.418 1.939-.791 2.806-1.239.885-.409 1.689-.858 2.432-1.269.744-.41 1.4-.83 1.998-1.175l1.496-.973 1.269-.901z"
        fill="#482E54"
      />
      <path
        d="M42.216 492.465s14.575-72.365 63.047-38.459c28.657 20.045 26.73-64.903 62.262-60.357 26.498 3.39 27.813-29.77 56.83-34.047v132.863H42.216z"
        fill="url(#prefix__paint2_linear_930_2)"
      />
      <path
        d="M282.436 327.708c-9.117-11.282-6.845-23.984-.75-26.469 6.096-2.485 19.537 16.724 21.72 5.392 2.183-11.331 1.62-14.177-7.207-19.07-8.827-4.894-18.204-11.493-11-18.218 7.206-6.724 16.669 15.51 22.549 4.126 5.879-11.385-24.256-22.59-17.109-33.88 7.148-11.29 13.788 10.603 18.322 7.019 4.536-3.584-11.591-34.967 4.447-36.225 16.04-1.259 2.873 35.796 6.378 37.345 3.505 1.547 7.534-5.702 11.412.292 3.877 5.993-10.041 19.513-9.294 27.224.747 7.711 8.438-2.445 16.854 3.368 8.416 5.814-15.608 19.059-13.549 23.252 2.058 4.192 11.642-6.675 17.006.096 5.364 6.772-.852 33.569-20.29 41.839-19.435 8.272-39.489-16.091-39.489-16.091z"
        fill="#FF989D"
      />
      <path
        d="M342.218 303.364c-5.364-6.77-14.948 4.096-17.006-.096-2.059-4.193 21.965-17.438 13.549-23.252-8.416-5.813-16.107 4.343-16.854-3.368-.747-7.711 13.169-21.232 9.294-27.225-3.878-5.992-7.907 1.256-11.412-.291-3.449-1.522 9.233-37.423-5.664-37.349l1.068 135.055a21.245 21.245 0 006.736-1.632c19.437-8.273 25.654-35.07 20.289-41.842z"
        fill="url(#prefix__paint3_linear_930_2)"
        opacity="0.2"
      />
      <path
        d="M316.677 477.648l-2.097.019-.976-255.987 3.073 255.968z"
        fill="#482E54"
      />
      <path
        d="M288.467 315.693s2.485 2.951 6.93 6.496c2.208 1.781 4.944 3.66 8.099 5.187 1.591.72 3.262 1.428 5.041 1.837 1.765.428 3.607.712 5.447.606.922.032 1.829-.172 2.738-.274.882-.253 1.795-.392 2.628-.776 1.728-.591 3.261-1.601 4.679-2.634.706-.523 1.322-1.151 1.968-1.704.613-.595 1.152-1.243 1.71-1.84s.993-1.279 1.472-1.884a16.86 16.86 0 001.268-1.849l1.106-1.75.894-1.647c.575-1.027 1.044-1.941 1.379-2.722l1.114-2.423-1.051 2.456c-.313.793-.759 1.722-1.309 2.767l-.854 1.68c-.346.562-.71 1.156-1.091 1.773a16.92 16.92 0 01-1.259 1.874c-.478.614-.91 1.306-1.468 1.915-.558.608-1.098 1.268-1.711 1.876-.65.567-1.267 1.209-1.98 1.748-1.429 1.063-2.982 2.107-4.741 2.728-.848.401-1.779.553-2.68.82-.928.115-1.856.333-2.799.307-1.882.089-3.757-.22-5.546-.672-1.801-.433-3.485-1.167-5.085-1.91-3.171-1.574-5.903-3.49-8.105-5.301a52.354 52.354 0 01-5.043-4.719c-1.147-1.218-1.751-1.965-1.751-1.965zM294.929 244.955s.253.52.8 1.36c.543.841 1.382 1.999 2.474 3.306 2.183 2.588 5.423 5.877 9.382 7.906.99.488 1.999.944 3.043 1.223 1.037.287 2.086.483 3.107.491 1.023.048 2.007-.092 2.926-.282a12.516 12.516 0 002.495-.916c.744-.37 1.388-.786 1.952-1.17.55-.401 1.009-.789 1.39-1.102a419.37 419.37 0 001.124-1.077l-1.079 1.133c-.367.332-.811.743-1.348 1.175-.55.417-1.182.872-1.935 1.264-.746.4-1.599.74-2.529 1.006-.937.221-1.951.399-3.005.352-1.053.002-2.133-.19-3.2-.475-1.073-.277-2.111-.734-3.126-1.225-4.027-2.102-7.265-5.458-9.378-8.142a29.971 29.971 0 01-2.354-3.428c-.511-.868-.739-1.399-.739-1.399zM291.653 278.667l1.552 1.225 1.832 1.327c.734.471 1.538 1.041 2.448 1.605.913.559 1.896 1.176 2.983 1.737 1.063.613 2.241 1.128 3.443 1.698 1.235.479 2.486 1.065 3.825 1.431.666.195 1.326.435 2.008.597l2.057.451c.681.187 1.387.214 2.076.328.693.093 1.383.21 2.074.197.689.021 1.374.039 2.051.06.675-.031 1.339-.112 1.995-.164 1.321-.039 2.545-.455 3.732-.673 1.166-.316 2.225-.779 3.227-1.12.956-.461 1.815-.932 2.592-1.317.796-.352 1.363-.886 1.897-1.212l1.622-1.12-1.584 1.182c-.522.345-1.077.906-1.863 1.289-.765.417-1.614.927-2.578 1.396-1.006.357-2.072.838-3.247 1.175-1.195.236-2.431.673-3.767.73-.663.061-1.337.152-2.019.192l-2.078-.031c-.701.02-1.4-.087-2.102-.173-.699-.108-1.417-.125-2.106-.307l-2.076-.485c-.687-.171-1.352-.422-2.022-.627-1.348-.39-2.602-.996-3.84-1.493-1.203-.591-2.383-1.125-3.444-1.755-1.086-.578-2.066-1.21-2.976-1.785-1.811-1.164-3.22-2.295-4.205-3.077l-1.507-1.281z"
        fill="#482E54"
      />
      <path
        d="M336.328 357.891c-6.665-8.249-5.005-17.535-.549-19.352 4.456-1.816 14.282 12.227 15.879 3.942 1.597-8.284 1.184-10.364-5.27-13.941-6.453-3.579-13.308-8.403-8.041-13.319 5.267-4.916 12.186 11.34 16.485 3.017 4.299-8.324-17.733-16.516-12.507-24.769 5.225-8.253 10.079 7.751 13.395 5.132 3.315-2.619-8.475-25.563 3.251-26.484 11.727-.921 2.1 26.171 4.663 27.302 2.562 1.131 5.508-4.168 8.342.214 2.834 4.381-7.34 14.265-6.794 19.902.546 5.638 6.17-1.787 12.322 2.464 6.153 4.25-11.41 13.932-9.905 16.998 1.505 3.067 8.511-4.879 12.434.071 3.921 4.95-.623 24.541-14.834 30.588-14.21 6.047-28.871-11.765-28.871-11.765z"
        fill="#FFFDBE"
      />
      <path
        d="M380.034 340.471c-3.921-4.95-10.929 2.995-12.434-.07-1.505-3.064 16.058-12.748 9.905-16.998-6.153-4.251-11.775 3.173-12.321-2.464-.546-5.637 9.628-15.521 6.794-19.903-2.834-4.381-5.78.918-8.342-.213-2.513-1.109 6.677-27.154-4.013-27.305l.731 98.729a15.494 15.494 0 004.848-1.186c14.209-6.048 18.754-25.64 14.832-30.59z"
        fill="url(#prefix__paint4_linear_930_2)"
        opacity="0.2"
      />
      <path
        d="M361.643 480.448l-2.097.017-.432-200.089 2.529 200.072z"
        fill="#482E54"
      />
      <path
        d="M340.737 349.108s1.829 2.144 5.084 4.722c1.615 1.298 3.616 2.666 5.921 3.777 1.162.524 2.383 1.038 3.679 1.334 1.288.31 2.631.514 3.969.435.672.025 1.332-.124 1.994-.197.642-.182 1.306-.282 1.913-.561 1.259-.428 2.377-1.16 3.413-1.911.516-.382.964-.839 1.437-1.241.446-.433.842-.906 1.25-1.34.749-.928 1.468-1.813 2.005-2.722l.81-1.276.658-1.199c.425-.748.771-1.415 1.017-1.984l.824-1.767-.761 1.8a21.308 21.308 0 01-.948 2.029l-.62 1.23-.795 1.3c-.53.922-1.244 1.826-1.992 2.776-.408.446-.802.931-1.252 1.378-.475.416-.926.886-1.448 1.284-1.047.78-2.185 1.548-3.475 2.008-.622.296-1.305.41-1.967.604-.681.086-1.363.247-2.054.229-1.382.063-2.757-.165-4.068-.5-1.32-.321-2.553-.86-3.723-1.407-2.321-1.157-4.319-2.563-5.927-3.89-1.618-1.32-2.838-2.577-3.675-3.468-.83-.896-1.269-1.443-1.269-1.443zM345.462 297.392s.192.377.596.986a24.805 24.805 0 001.825 2.397c.789.962 1.804 1.994 2.948 3.021.581.501 1.182 1.02 1.85 1.463.633.498 1.36.854 2.054 1.265.738.301 1.445.724 2.216.871.381.09.752.221 1.13.279l1.127.09c.372.064.733-.015 1.088-.051.354-.045.706-.067 1.04-.128.641-.24 1.28-.393 1.817-.664l1.431-.841c.407-.284.717-.6.995-.826l.86-.743-.813.799c-.266.245-.561.586-.954.901l-1.416.933c-.542.298-1.193.483-1.85.754-.694.094-1.436.312-2.207.249l-1.175-.079c-.392-.055-.778-.182-1.173-.273-.805-.146-1.536-.568-2.301-.874-.709-.43-1.451-.807-2.091-1.321-.675-.463-1.28-.997-1.867-1.513a25.33 25.33 0 01-2.89-3.152c-1.555-1.982-2.24-3.543-2.24-3.543zM343.066 322.038l1.141.888a46.176 46.176 0 003.142 2.12c1.326.834 2.937 1.682 4.704 2.479.901.351 1.813.779 2.79 1.049.96.332 1.959.561 2.964.77 1.005.176 2.021.349 3.025.378l1.494.041c.492-.024.977-.083 1.453-.122.962-.034 1.855-.327 2.722-.478.851-.225 1.626-.555 2.36-.798l1.897-.947c.583-.254 1.001-.641 1.391-.876l1.192-.812-1.153.873c-.38.255-.784.668-1.357.953-.558.31-1.178.688-1.881 1.037-.734.268-1.514.626-2.372.878-.875.181-1.78.511-2.762.549-.485.043-.979.109-1.481.138-.502-.007-1.011-.017-1.523-.024-.515.014-1.025-.066-1.54-.13-.512-.079-1.038-.093-1.544-.227-1.019-.222-2.033-.465-3.004-.811-.988-.283-1.907-.726-2.814-1.089a35.726 35.726 0 01-4.686-2.619c-1.318-.863-2.345-1.696-3.061-2.275l-1.097-.945z"
        fill="#482E54"
      />
      <path
        d="M381.378 546.822c0 13.066-60.308 23.654-134.702 23.654-74.395 0-134.703-10.588-134.703-23.654 0-13.065 60.308-23.653 134.703-23.653 74.394 0 134.702 10.594 134.702 23.653z"
        fill="#CCC"
      />
      <path
        d="M38.244 542.413h162.215s9.068-29.597-20.404-19.819c-14.411 4.781 11.551-41.676-23.426-32.899-24.336 6.108-32.871-18.219-50.629-17.837-46.685 1.005-15.114 40.033-43.576 36.467-23.096-2.896-33.123 16.648-24.18 34.088z"
        fill="#E1BFFF"
      />
      <path
        d="M424.676 530.385s-15.27-89.089-66.055-47.345c-30.025 24.679-43.689-98.215-67.143-61.895-39.548 61.239-27.229-49.061-57.631-54.327v163.567h190.829z"
        fill="url(#prefix__paint5_linear_930_2)"
      />
      <path
        d="M139.266 551.107c-.306-1.99 1.575-4.642 5.858-7.639 10.132-7.088 29.577-13.325 42.565-13.325H333.64v-241.1H187.689c-12.988 0-32.433 6.238-42.565 13.326-3.482 2.437-5.377 4.646-5.798 6.456l-.06 242.282z"
        fill="#F5F5F5"
      />
      <path
        d="M149.747 307.137c-.357-1.204.804-2.881 3.602-4.768 5.88-3.967 16.668-7.335 23.818-7.335h149.586V533.99H149.685V307.137"
        fill="#E0E0E0"
      />
      <path
        d="M159.492 304.522c-.182-.537.359-1.301 1.667-2.154 2.578-1.682 7.137-3.073 10.131-3.073h150.562v237.883H159.458"
        fill="#F5F5F5"
      />
      <path
        d="M159.492 304.521c.17.499.966.803 2.354.803h153.076v236.429H159.458l.034-237.232z"
        fill="#E4E4E4"
      />
      <path
        d="M149.747 307.137c.356 1.203 2.228 1.936 5.496 1.936h155.37v238.226H149.684l.063-240.162z"
        fill="#F5F5F5"
      />
      <path
        d="M149.059 533.99l-.159-35.446-.137-77.981.136-77.981.16-35.445.161 35.445.136 77.981-.138 77.981-.159 35.446z"
        fill="#401A4C"
      />
      <path
        d="M149.121 307.137c-.132-.465-.035-.962.171-1.39.2-.432.485-.819.796-1.177.626-.717 1.372-1.314 2.134-1.872 1.55-1.09 3.211-2.01 4.918-2.819 3.42-1.617 7.016-2.837 10.685-3.731a44.194 44.194 0 015.574-1.005c1.879-.231 3.775-.197 5.657-.205l11.313-.031 45.252-.059 90.505-.086h.268v.272l-.054 119.478-.201 119.479v.014h-.013l-4.901-.014 4.901-.014-.014.014-.2-119.479-.053-119.478.268.271-90.505-.086-45.252-.059-11.313-.032c-1.887-.003-3.77-.048-5.642.173a43.813 43.813 0 00-5.562.971c-3.664.872-7.263 2.069-10.687 3.665-1.71.799-3.372 1.709-4.926 2.787-.765.554-1.512 1.146-2.14 1.857-.312.355-.6.739-.802 1.17-.206.425-.306.92-.177 1.386z"
        fill="#E4E4E4"
      />
      <path
        d="M158.867 304.522c-.133-.437.167-.849.437-1.158.288-.322.63-.587.978-.836a14.969 14.969 0 012.245-1.249 24.507 24.507 0 014.869-1.615 17.714 17.714 0 012.539-.378c.858-.052 1.711-.023 2.566-.035l5.128-.015 20.514-.059 41.028-.062 82.054-.081h.259v.262l-.037 118.941-.201 118.941v.02h-.02l-6.931-.02 6.931-.021-.02.021-.2-118.941-.038-118.941.258.26-82.054-.081-41.028-.062-20.513-.059-5.129-.015c-.854.006-1.711-.026-2.56.02a17.87 17.87 0 00-2.532.362 24.434 24.434 0 00-4.869 1.584 14.95 14.95 0 00-2.25 1.235c-.349.247-.693.51-.981.828-.271.308-.573.717-.443 1.154z"
        fill="#401A4C"
      />
      <path
        d="M158.867 309.074l-.013-4.551v-.073l.026.068c.149.393.585.551.96.649.393.096.799.129 1.203.135l2.432-.004 4.865-.015 9.731-.029 19.461-.057 38.922-.054 77.843-.079h.258v.261l-.039 118.215-.207 118.214v.012h-.012l-3.937-.012 3.937-.011-.011.011-.208-118.214-.039-118.215.258.261-77.843-.078-38.922-.054-19.461-.058-9.731-.028-4.865-.015-2.433-.01a5.482 5.482 0 01-1.21-.143c-.378-.102-.823-.263-.977-.673l.025-.004-.013 4.551z"
        fill="#E4E4E4"
      />
      <path
        d="M149.121 307.137c.275.839 1.135 1.265 1.916 1.502.806.245 1.648.35 2.486.399 1.681.06 3.365.015 5.046.028l10.095-.008 20.189-.015 40.378-.03 80.756-.061h.12v.122l.176 238.226v.299h-.296l-160.929-.119h-.178v-.18l.241-240.163zm0 0l.115 240.161-.178-.18 160.929-.119-.296.299.175-238.225.121.122-80.756-.061-40.378-.03-20.189-.015-10.095-.008c-1.682-.014-3.365.029-5.047-.035-.839-.049-1.681-.156-2.487-.403-.779-.239-1.639-.667-1.914-1.506z"
        fill="#401A4C"
      />
      <path
        d="M305.577 314.015h-156.27c-6.931 0-10.315-1.901-9.612-4.91l-.059 241.62c.356 2.317 3.697 3.731 9.671 3.731h156.27V314.015z"
        fill="#fff"
      />
      <path
        d="M158.52 368.476v-1.28l4.2-.6h1.12l5.48.6v1.28h-10.8zm3.88 0v-28.52h1.48l.44 18.12v10.4h-1.92zm14.96-28.28v-1.32h10.8v1.32l-4.2.52h-1.04l-5.56-.52zm3.96 28.44l-17.88-26-.12-.12-1.32-2.04-3.36-.28v-1.32h8.88l15.96 23.24-.76.28-.16-11.88v-11.64h1.68v29.76h-2.92zm9.785-.16v-1.28l6.12-.6h.56v1.88h-6.68zm3.72 0c.12-4.48.12-9.16.12-13.84v-1.88c0-4.68 0-9.28-.12-13.88h5.92c-.12 4.52-.12 9.2-.12 14.12v1.12c0 5.12 0 9.76.12 14.36h-5.92zm2.96 0v-1.48h15.32l-2.88 1.36 1.96-7.8h2.04l-.04 7.92h-16.4zm0-14.36v-1.4h9.84v1.4h-9.84zm9.4 4.04l-.6-4.44v-.84l.6-4.4h1.8v9.68h-1.8zm-16.08-17.96v-1.32h6.68v1.84h-.56l-6.12-.52zm20.24 6.36l-1.88-7.6 2.8 1.44h-14.48v-1.52h15.64l.04 7.68h-2.12zm15.808 22.08l-8.64-29.76h6l6.44 24.64h-.72l.16-.6 7-24.04h3.28l7.12 24.84h-.72l.12-.68 6.52-24.16h2.08l-8.64 29.76h-3.08l-7.36-24.32h.8l-.2.56-7.08 23.76h-3.08zm-11.12-28.44v-1.32h12.72v1.32l-5.76.52h-1.24l-5.72-.52zm16.96 0v-1.32h12.48v1.32l-5.36.52h-2.12l-5-.52zm16.4 0v-1.32h9.68v1.32l-4.32.52h-1.04l-4.32-.52zm20.054 29.04c-3.32 0-6.8-.88-9.04-2.36l.28-6.56h2.08l2.04 7.56-2.48-1.08-.44-1.48c2.64 1.84 4.32 2.32 7.04 2.32 4.08 0 6.48-1.92 6.48-5.28 0-2.76-1.2-4.24-4.8-5.8l-1.88-.8c-5.12-2.28-7.84-4.88-7.84-9.44 0-5.28 4.28-8.2 10.36-8.2 3.12 0 5.72.84 7.8 2.24l-.28 6.28h-2.12l-1.92-7.24 2.64 1.12.28 1.6c-2.24-1.76-3.56-2.4-5.8-2.4-3.56 0-6 1.76-6 4.96 0 2.84 1.64 4.4 4.6 5.68l1.96.88c6.04 2.64 8.12 4.96 8.12 9.32 0 5.24-4.04 8.68-11.08 8.68zM292.748 374.853H150.027v7.216h142.721v-7.216zM150.027 329.15h54.422v-7.216h-54.422v7.216zm88.299-7.216v7.216h54.422v-7.216h-54.422z"
        fill="#292929"
      />
      <path d="M292.748 534.411H150.027v7.216h142.721v-7.216z" fill="#A2BDD6" />
      <path d="M292.748 391.691h-66.55v61.738h66.55v-61.738z" fill="#FF989D" />
      <path
        d="M282.929 420.271c-6.546 1.658-11.456 19.065-17.182 7.461-4.092-8.29 7.364-23.211-3.274-29.013-9.819-6.632-22.91 2.486-15.547 15.75 1.637 4.145 4.909 8.289 3.274 12.434-4.295 9.428-14.852 8.07-24.002 8.692v17.834h66.55v-31.853c-2.684-1.581-5.873-2.174-9.819-1.305z"
        fill="#292929"
      />
      <path
        d="M226.198 391.691v44.099c9.15-.631 19.707.745 24.002-8.811 1.636-4.201-1.637-8.402-3.274-12.603-7.364-13.443 5.728-22.685 15.547-15.964 10.637 5.882-.818 21.005 3.274 29.407 5.727 11.764 10.636-5.881 17.182-7.562 3.946-.881 7.135-.28 9.819 1.322v-29.888h-66.55zM216.561 392.028h-66.876v104.253h66.876V392.028z"
        fill="#F5F5F5"
      />
      <path
        d="M152.399 404.782l9.512-.169 9.749-.092 11.175-.041 11.176.04 9.748.091 9.512.17-9.512.169c-2.853.027-6.182.059-9.748.091l-11.176.04-11.175-.041c-3.568-.034-6.896-.064-9.749-.092l-9.512-.166zM152.399 410.881l9.512-.168 9.749-.092 11.175-.04 11.176.039 9.748.092 9.512.169-9.512.17-9.748.091c-3.568.013-7.372.027-11.176.039l-11.175-.04-9.749-.092-9.512-.168zM152.399 416.982l9.512-.169 9.749-.092 11.175-.04 11.176.039 9.748.091 9.512.17-9.512.169-9.748.091-11.176.039-11.175-.04-9.749-.092-9.512-.166zM152.399 423.082l9.512-.169 9.749-.092 11.175-.04 11.176.039 9.748.091 9.512.17-9.512.169c-2.853.027-6.182.059-9.748.091l-11.176.04-11.175-.041c-3.568-.034-6.896-.064-9.749-.092-5.708-.098-9.512-.166-9.512-.166zM152.399 429.181l9.512-.168 9.749-.092 11.175-.041 11.176.04 9.748.091 9.512.169-9.512.17-9.748.091-11.176.039-11.175-.04a23823.3 23823.3 0 00-9.749-.091l-9.512-.168zM152.399 435.281l9.512-.168 9.749-.093 11.175-.04 11.176.039 9.748.091 9.512.169-9.512.17-9.748.091-11.176.039-11.175-.04-9.749-.092c-5.708-.098-9.512-.166-9.512-.166zM152.399 441.382l9.512-.169 9.749-.091 11.175-.04 11.176.039 9.748.091 9.512.169-9.512.169-9.748.092-11.176.039-11.175-.04-9.749-.093-9.512-.166zM152.399 447.482l9.512-.169 9.749-.092 11.175-.041 11.176.04 9.748.091 9.512.17-9.512.168-9.748.091-11.176.04-11.175-.041c-3.568-.034-6.896-.064-9.749-.092l-9.512-.165zM152.399 453.581l9.512-.168 9.749-.093 11.175-.04 11.176.039 9.748.092 9.512.169-9.512.169-9.748.091c-3.568.013-7.372.027-11.176.039l-11.175-.04-9.749-.092c-5.708-.098-9.512-.166-9.512-.166zM152.399 459.681l9.512-.169 9.749-.092 11.175-.04 11.176.039 9.748.091 9.512.17-9.512.17-9.748.091-11.176.039-11.175-.04a23823.3 23823.3 0 00-9.749-.091l-9.512-.168zM152.399 465.782l9.512-.169 9.749-.091 11.175-.04 11.176.039 9.748.091 9.512.17-9.512.169-9.748.092-11.176.039-11.175-.04-9.749-.093-9.512-.167zM152.399 471.881l9.512-.168 9.749-.092 11.175-.041 11.176.04 9.748.091c5.707.102 9.512.168 9.512.168l-9.512.17-9.748.091c-3.568.013-7.372.027-11.176.039l-11.175-.04-9.749-.092-9.512-.166zM152.399 477.981l9.512-.169 9.749-.092 11.175-.04 11.176.039 9.748.091 9.512.169-9.512.17-9.748.091-11.176.039-11.175-.04-9.749-.092c-5.708-.098-9.512-.166-9.512-.166zM152.399 484.081l9.512-.169 9.749-.092 11.175-.04 11.176.039 9.748.091 9.512.17-9.512.168-9.748.092-11.176.039-11.175-.041c-3.568-.033-6.896-.064-9.749-.092-5.708-.097-9.512-.165-9.512-.165zM228.9 459.681l9.512-.169 9.749-.092 11.175-.04 11.176.039 9.749.091 9.512.17-9.512.17-9.749.091-11.176.039-11.175-.04a23823.3 23823.3 0 00-9.749-.091l-9.512-.168zM228.9 465.782l9.512-.169 9.749-.091 11.175-.04 11.176.039 9.749.091 9.512.17-9.512.169-9.749.092-11.176.039-11.175-.04-9.749-.093-9.512-.167zM228.9 471.881l9.512-.168 9.749-.092 11.175-.041 11.176.04 9.749.091c5.707.102 9.512.168 9.512.168l-9.512.17-9.749.091c-3.567.013-7.372.027-11.176.039l-11.175-.04-9.749-.092-9.512-.166zM228.9 477.981l9.512-.168 9.749-.093 11.175-.04 11.176.039 9.749.092 9.512.168-9.512.17-9.749.091-11.176.039-11.175-.04-9.749-.092c-5.708-.098-9.512-.166-9.512-.166zM228.9 484.081l9.512-.169 9.749-.092 11.175-.04 11.176.039 9.749.091 9.512.17-9.512.168-9.749.092-11.176.039-11.175-.04-9.749-.093c-5.708-.097-9.512-.165-9.512-.165zM228.9 490.182l9.512-.169 9.749-.092 11.175-.041 11.176.04 9.749.091 9.512.17-9.512.169c-2.853.027-6.182.059-9.749.091l-11.176.04-11.175-.041c-3.568-.034-6.896-.064-9.749-.092l-9.512-.166z"
        fill="#401A4C"
      />
      <path
        d="M292.748 503.141H150.027v24.054h142.721v-24.054z"
        fill="#F5F5F5"
      />
      <path
        d="M154.61 511.254l9.512-.169 9.748-.092 11.176-.04 11.175.039 9.749.091 9.512.17-9.512.168-9.749.092-11.175.039-11.176-.04-9.748-.092-9.512-.166zM154.61 517.354l9.512-.169 9.748-.092 11.176-.041 11.175.04 9.749.091 9.512.17-9.512.168c-2.853.027-6.182.059-9.749.091l-11.175.04-11.176-.041c-3.567-.034-6.895-.064-9.748-.092-5.708-.097-9.512-.165-9.512-.165zM154.61 523.453l9.512-.168 9.748-.092 11.176-.04 11.175.039 9.749.092 9.512.169-9.512.17-9.749.091c-3.566.013-7.371.027-11.175.039l-11.176-.04-9.748-.092-9.512-.168zM225.891 511.254l9.512-.169 9.749-.092 11.175-.04 11.176.039 9.749.091 9.512.17-9.512.168-9.749.092-11.176.039-11.175-.04-9.749-.092-9.512-.166zM225.891 517.354l9.512-.169 9.749-.092 11.175-.041 11.176.04 9.749.091 9.512.17-9.512.168c-2.854.027-6.183.059-9.749.091l-11.176.04-11.175-.041c-3.567-.034-6.895-.064-9.749-.092-5.708-.097-9.512-.165-9.512-.165zM225.891 523.453l9.512-.168 9.749-.092 11.175-.04 11.176.039 9.749.092 9.512.169-9.512.17-9.749.091c-3.567.013-7.371.027-11.176.039l-11.175-.04-9.749-.092-9.512-.168z"
        fill="#401A4C"
      />
      <path
        d="M206.164 323.57s1.892-.095 4.73-.168l4.848-.093 5.558-.04 5.558.039c1.773.01 3.429.067 4.848.092 2.839.072 4.73.169 4.73.169s-1.892.097-4.73.17c-1.419.024-3.075.082-4.848.091l-5.558.039-5.558-.04-4.848-.092c-2.838-.071-4.73-.167-4.73-.167zM206.164 327.175s1.892-.096 4.73-.169l4.848-.092 5.558-.04 5.558.039c1.773.009 3.429.067 4.848.091 2.839.072 4.73.17 4.73.17s-1.892.096-4.73.169c-1.419.025-3.075.082-4.848.092l-5.558.039-5.558-.04-4.848-.092c-2.838-.072-4.73-.167-4.73-.167z"
        fill="#414141"
      />
      <defs>
        <linearGradient
          id="prefix__paint0_linear_930_2"
          x1="162.506"
          y1="206.585"
          x2="162.506"
          y2="341.264"
          gradientUnits="userSpaceOnUse"
        >
          <stop stopColor="#FF9677" />
          <stop offset="1" stopColor="#E67F60" />
        </linearGradient>
        <linearGradient
          id="prefix__paint1_linear_930_2"
          x1="106.447"
          y1="268.124"
          x2="106.447"
          y2="366.574"
          gradientUnits="userSpaceOnUse"
        >
          <stop stopColor="#FF989D" />
          <stop offset="1" stopColor="#FF8288" />
        </linearGradient>
        <linearGradient
          id="prefix__paint2_linear_930_2"
          x1="42.216"
          y1="426.033"
          x2="224.355"
          y2="426.033"
          gradientUnits="userSpaceOnUse"
        >
          <stop stopColor="#FFFDBE" />
          <stop offset="1" stopColor="#FF8554" />
        </linearGradient>
        <linearGradient
          id="prefix__paint3_linear_930_2"
          x1="329.092"
          y1="211.782"
          x2="329.092"
          y2="346.836"
          gradientUnits="userSpaceOnUse"
        >
          <stop stopColor="#FF989D" />
          <stop offset="1" stopColor="#FF8288" />
        </linearGradient>
        <linearGradient
          id="prefix__paint4_linear_930_2"
          x1="370.502"
          y1="273.517"
          x2="370.502"
          y2="372.246"
          gradientUnits="userSpaceOnUse"
        >
          <stop stopColor="#FF9677" />
          <stop offset="1" stopColor="#E67F60" />
        </linearGradient>
        <linearGradient
          id="prefix__paint5_linear_930_2"
          x1="424.676"
          y1="448.601"
          x2="233.847"
          y2="448.601"
          gradientUnits="userSpaceOnUse"
        >
          <stop stopColor="#FFFDBE" />
          <stop offset="1" stopColor="#FF8554" />
        </linearGradient>
      </defs>
    </svg>